<svg width="12" height="12" viewBox="0 0 12 12" fill="none" xmlns="http://www.w3.org/2000/svg">
<path d="M11.7493 0.251049C12.0841 0.58578 12.0841 1.1285 11.7493 1.46323L2.03544 11.1775C1.70072 11.5122 1.15802 11.5122 0.823305 11.1775C0.488586 10.8427 0.488586 10.3001 0.823305 9.96537L10.5373 0.251049C10.872 -0.0836829 11.4146 -0.0836829 11.7493 0.251049Z" fill="#575757"/>
<path d="M0 0.857143C0 0.38376 0.383746 0 0.857111 0H11.1424C11.6158 0 11.9995 0.38376 11.9995 0.857143V11.1429C11.9995 11.6162 11.6158 12 11.1424 12C10.6691 12 10.2853 11.6162 10.2853 11.1429V1.71429H0.857111C0.383746 1.71429 0 1.33053 0 0.857143Z" fill="#575757"/>
</svg>
