<svg width="120" height="120" viewBox="0 0 120 120" fill="none" xmlns="http://www.w3.org/2000/svg">
<circle cx="60" cy="60" r="60" fill="#8B5E3C"/>
<circle cx="60" cy="60" r="26" fill="white"/>
<path d="M45.1574 54.4507C44.5028 52.119 45.9757 50.2575 47.992 49.403C50.3445 48.4558 52.9255 48.2519 55.3948 48.8183C57.864 49.3848 60.1058 50.6949 61.8247 52.576C65.3925 56.4314 59.6709 62.2409 56.0965 58.3789C54.3748 56.5241 52.4305 56.3519 50.1458 57.319C48.1164 58.1736 45.6811 56.3784 45.1574 54.4507ZM63.2911 57.2263C63.1793 57.4924 63.0434 57.7474 62.8852 57.9881C63.5014 58.3968 64.2179 58.6239 64.9544 58.6438C65.691 58.6637 66.4184 58.4756 67.0553 58.1007C68.8687 57.0342 69.7262 54.3447 68.5086 52.4899C65.3336 47.6542 60.0506 46.3889 54.6367 47.3296C54.2348 47.3963 53.8512 47.5475 53.5107 47.7734C56.883 48.0287 60.0384 49.5531 62.3549 52.0461C63.0118 52.7116 63.453 53.5635 63.6202 54.4887C63.7874 55.4139 63.6726 56.3686 63.2911 57.2263ZM68.5741 57.7761C68.1431 58.2859 67.608 58.6951 67.0056 58.9753C66.4032 59.2555 65.7478 59.4001 65.0848 59.3991C64.1541 59.3913 63.2452 59.113 62.4662 58.5975C62.0178 59.142 61.4603 59.5841 60.8307 59.8947C60.201 60.2053 59.5134 60.3773 58.8133 60.3993H58.7413C57.7593 62.5853 57.432 70.561 57.432 70.561C56.9214 68.2292 57.8772 60.2933 57.8772 60.2933C56.9836 60.0733 56.1761 59.5863 55.5597 58.8956C55.2051 58.4648 54.7634 58.1159 54.2642 57.8725C53.7651 57.6291 53.2201 57.4968 52.6662 57.4846C51.8971 57.5068 51.1403 57.6847 50.4404 58.008C50.0008 58.1935 49.5289 58.2881 49.0525 58.2862C48.9085 58.2862 48.7645 58.2862 48.6205 58.2862C50.0476 63.2743 48.7318 67.6397 49.4977 68.9645C50.3946 70.5279 56.9607 73.065 57.6022 72.9987C58.2438 72.9325 66.5119 70.0244 70.4071 67.5999C71.0617 67.2025 70.1845 62.433 71.0028 59.101C70.0872 58.8965 69.2461 58.4377 68.5741 57.7761ZM75.4151 52.2779C72.5674 47.8132 67.8605 46.5546 62.931 47.1309C65.4785 48.0431 67.6576 49.78 69.1305 52.0726C69.4535 52.5841 69.6701 53.157 69.7669 53.7561C69.8637 54.3552 69.8387 54.968 69.6935 55.557C69.5638 56.1262 69.3426 56.6699 69.0389 57.1667C69.7209 57.8957 70.6447 58.3448 71.6334 58.4279C72.6221 58.5111 73.6064 58.2225 74.398 57.6174C75.1896 57.0123 75.7331 56.1331 75.9243 55.1481C76.1156 54.163 75.9413 53.1411 75.4348 52.2779H75.4151Z" fill="#8B5E3C"/>
<path d="M65.486 19.3122C64.8619 19.2363 64.2986 19.0556 63.7962 18.7703C63.3017 18.4859 62.8807 18.1216 62.5334 17.6773C62.1938 17.2339 61.9488 16.7325 61.7984 16.1729C61.648 15.6134 61.6132 15.0176 61.6939 14.3857C61.7746 13.7537 61.9543 13.184 62.233 12.6767C62.5205 12.1626 62.8841 11.7352 63.3238 11.3943C63.7723 11.0468 64.2754 10.7987 64.8332 10.65C65.3919 10.4937 65.9834 10.4535 66.6076 10.5294C67.2318 10.6053 67.7765 10.776 68.2418 11.0413C68.7149 11.3076 69.1012 11.633 69.4008 12.0173C69.7013 12.3941 69.8999 12.7933 69.9966 13.2148L68.4857 13.6922C68.3763 13.2459 68.144 12.862 67.7889 12.5404C67.4347 12.2113 66.9807 12.013 66.4267 11.9456C65.8806 11.8792 65.3808 11.946 64.9274 12.1461C64.4818 12.347 64.1137 12.6541 63.8233 13.0672C63.5406 13.4813 63.3614 13.9853 63.2855 14.5792C63.2097 15.1731 63.2562 15.7084 63.4251 16.1852C63.6028 16.6552 63.8824 17.041 64.2638 17.3426C64.653 17.6451 65.1207 17.8295 65.6669 17.896C66.2209 17.9633 66.7104 17.8837 67.1355 17.657C67.5616 17.4227 67.8838 17.1024 68.1021 16.6959L69.4468 17.5205C69.247 17.9061 68.9536 18.2493 68.5665 18.5501C68.1805 18.8434 67.7246 19.0625 67.199 19.2073C66.6812 19.3531 66.1102 19.3881 65.486 19.3122Z" fill="white"/>
<path d="M74.7276 21.4203C74.1383 21.2057 73.6513 20.8769 73.2668 20.4339C72.8897 19.9936 72.6454 19.4911 72.534 18.9264C72.4299 18.3644 72.4906 17.7887 72.716 17.1992C72.9413 16.6097 73.2819 16.1359 73.7377 15.7777C74.2009 15.4222 74.7228 15.1986 75.3033 15.107C75.8838 15.0153 76.4724 15.0781 77.0691 15.2953C77.6585 15.5099 78.1417 15.8373 78.5188 16.2776C78.896 16.7179 79.1366 17.2191 79.2406 17.7811C79.3548 18.3386 79.2978 18.9157 79.0697 19.5124C78.8444 20.1018 78.5001 20.5743 78.0369 20.9298C77.5737 21.2853 77.0519 21.5089 76.4713 21.6006C75.8908 21.6922 75.3096 21.6321 74.7276 21.4203ZM75.2223 20.1263C75.5464 20.2443 75.8589 20.272 76.1597 20.2096C76.4679 20.1498 76.7428 20.0124 76.9845 19.7973C77.2362 19.5778 77.4267 19.2991 77.5559 18.9612C77.6878 18.6162 77.7295 18.2874 77.6811 17.975C77.6429 17.658 77.5273 17.3785 77.3346 17.1363C77.152 16.8897 76.8986 16.7073 76.5744 16.5893C76.2429 16.4686 75.9217 16.4418 75.6108 16.5087C75.3026 16.5685 75.024 16.7046 74.775 16.9169C74.5361 17.1248 74.3507 17.4012 74.2188 17.7463C74.0896 18.0842 74.0428 18.4152 74.0783 18.7393C74.124 19.0589 74.2432 19.3398 74.4359 19.582C74.6287 19.8241 74.8908 20.0056 75.2223 20.1263Z" fill="white"/>
<path d="M80.4532 23.5913L83.8719 18.2931L85.0994 19.0475L84.427 20.0896L84.4466 19.8432C84.7783 19.6027 85.1396 19.4892 85.5304 19.5027C85.9321 19.5138 86.3259 19.6379 86.7118 19.875C87.111 20.1203 87.4092 20.4214 87.6063 20.7783C87.8101 21.1393 87.9 21.5255 87.8761 21.937C87.8564 22.3419 87.7187 22.7424 87.4631 23.1385L85.2636 26.5473L83.9562 25.7439L85.9609 22.6371C86.1118 22.4033 86.1951 22.1734 86.2108 21.9474C86.2266 21.7213 86.1807 21.5117 86.073 21.3186C85.9761 21.1231 85.8179 20.9579 85.5984 20.823C85.3855 20.6921 85.1644 20.6243 84.9352 20.6195C84.7102 20.6082 84.4967 20.6583 84.2946 20.7699C84.0926 20.8815 83.9161 21.0541 83.7653 21.2879L81.7606 24.3947L80.4532 23.5913Z" fill="white"/>
<path d="M89.4559 30.0225C88.9152 29.5536 88.6255 29.0458 88.5869 28.4991C88.5594 27.9517 88.786 27.4142 89.2665 26.8866L91.1467 24.8218L90.318 24.1032L91.2346 23.0966L91.3228 23.173C91.5579 23.3769 91.7949 23.4747 92.0339 23.4664C92.2729 23.4581 92.4968 23.3392 92.7057 23.1098L93.0348 22.7484L94.1896 23.75L93.2182 24.8168L94.3202 25.7724L93.4036 26.779L92.3016 25.8233L90.4762 27.8279C90.3352 27.9827 90.2415 28.1376 90.1952 28.2924C90.1547 28.4524 90.1671 28.612 90.2324 28.7713C90.3036 28.9357 90.4333 29.0994 90.6213 29.2625C90.6625 29.2982 90.7121 29.3361 90.7702 29.3762C90.8342 29.4214 90.8953 29.4641 90.9534 29.5043L90.076 30.4678C89.9832 30.4079 89.8787 30.3379 89.7625 30.2576C89.6463 30.1773 89.5441 30.099 89.4559 30.0225Z" fill="white"/>
<path d="M92.8635 33.5364C92.5816 33.1964 92.3948 32.8553 92.3032 32.5131C92.2116 32.1709 92.2159 31.8467 92.316 31.5406C92.4223 31.2296 92.6191 30.9607 92.9063 30.7339C93.1814 30.5167 93.4753 30.3833 93.7882 30.3336C94.1071 30.2791 94.4438 30.3192 94.7982 30.4539C95.1527 30.5886 95.5187 30.8226 95.8964 31.1561L97.4829 32.5387L96.566 33.2627L95.1926 32.0821C94.9569 31.8832 94.737 31.7706 94.533 31.7442C94.329 31.7177 94.1384 31.7745 93.9612 31.9144C93.79 32.0496 93.7045 32.2208 93.7044 32.4281C93.7154 32.6366 93.8001 32.8362 93.9584 33.0271C94.1611 33.2716 94.3912 33.4453 94.6484 33.5482C94.9167 33.6522 95.1876 33.6801 95.4612 33.6318C95.7397 33.5896 95.992 33.4791 96.2181 33.3005L97.5017 32.2869C97.7156 32.118 97.8236 31.8945 97.8257 31.6165C97.8388 31.3396 97.7341 31.067 97.5115 30.7986C97.3038 30.5481 97.048 30.3799 96.7442 30.2941C96.4515 30.2094 96.155 30.2116 95.8546 30.3007L95.5375 28.9669C95.8795 28.8548 96.2293 28.8254 96.5869 28.8785C96.9556 28.9328 97.3112 29.0567 97.6537 29.2502C97.9962 29.4436 98.3034 29.7044 98.5755 30.0324C98.9069 30.432 99.1223 30.8443 99.2217 31.2691C99.3273 31.6892 99.3148 32.0889 99.1844 32.4683C99.065 32.8488 98.8281 33.179 98.4736 33.459L95.1547 36.0799L94.2348 34.9705L95.0874 34.2971L95.3135 34.5332C94.9957 34.5768 94.6917 34.5701 94.4016 34.513C94.1176 34.451 93.8443 34.3411 93.5819 34.1831C93.3255 34.0204 93.0861 33.8048 92.8635 33.5364Z" fill="white"/>
<path d="M98.1647 41.0873C97.8682 40.5373 97.7296 39.9755 97.749 39.4019C97.7791 38.8316 97.9491 38.3065 98.2589 37.8265C98.5757 37.3431 99.0159 36.9566 99.5795 36.6672C100.143 36.3778 100.715 36.2443 101.296 36.2669C101.877 36.2894 102.413 36.4519 102.905 36.7543C103.4 37.0634 103.796 37.493 104.093 38.043C104.305 38.4368 104.43 38.841 104.467 39.2555C104.511 39.6665 104.474 40.0585 104.355 40.4316C104.247 40.8079 104.052 41.1379 103.769 41.4216L102.616 40.5183C102.846 40.27 102.982 39.9789 103.024 39.6451C103.07 39.3182 103.009 38.9985 102.841 38.6861C102.683 38.3942 102.469 38.1703 102.198 38.0144C101.932 37.8654 101.635 37.7925 101.308 37.7957C100.981 37.7989 100.65 37.8862 100.316 38.0577C99.982 38.2292 99.7211 38.4456 99.5332 38.7068C99.3453 38.968 99.2388 39.2482 99.2135 39.5473C99.1918 39.8532 99.2597 40.1521 99.4172 40.4441C99.5893 40.7633 99.8264 40.997 100.128 41.1453C100.431 41.2936 100.755 41.3437 101.102 41.2955L101.191 42.7455C100.813 42.8012 100.429 42.7729 100.039 42.6607C99.6571 42.5449 99.3013 42.3547 98.9721 42.0903C98.6499 41.8222 98.3808 41.4879 98.1647 41.0873Z" fill="white"/>
<path d="M101.459 48.6092C101.236 47.9377 101.25 47.3567 101.5 46.8662C101.761 46.3806 102.235 46.0291 102.923 45.8116L105.616 44.9605L105.274 43.9313L106.587 43.5164L106.624 43.6259C106.72 43.9179 106.874 44.1193 107.084 44.2303C107.295 44.3412 107.55 44.3494 107.849 44.2548L108.32 44.1059L108.796 45.5403L107.405 45.98L107.859 47.3487L106.546 47.7636L106.092 46.3949L103.478 47.2211C103.276 47.285 103.115 47.3722 102.994 47.4828C102.876 47.6007 102.804 47.7445 102.778 47.9141C102.754 48.0911 102.781 48.2963 102.858 48.5299C102.875 48.581 102.898 48.6382 102.928 48.7016C102.959 48.7722 102.99 48.8392 103.019 48.9025L101.763 49.2997C101.714 49.2022 101.66 49.0901 101.601 48.9635C101.543 48.8368 101.495 48.7187 101.459 48.6092Z" fill="white"/>
<path d="M103.086 57.043C103.053 56.5607 103.134 56.1324 103.329 55.7582C103.524 55.3916 103.811 55.0998 104.19 54.8827C104.57 54.6732 105.023 54.5512 105.548 54.5168L109.467 54.2598L109.57 55.7641L105.781 56.0126C105.515 56.0301 105.283 56.0953 105.086 56.2082C104.897 56.3282 104.75 56.4878 104.646 56.6869C104.55 56.8932 104.51 57.1188 104.527 57.3638C104.544 57.6087 104.614 57.8233 104.737 58.0075C104.867 58.1912 105.039 58.3299 105.25 58.4237C105.461 58.5175 105.708 58.5552 105.991 58.5366L109.744 58.2904L109.848 59.7948L103.447 60.2146L103.348 58.7907L104.608 58.7081L104.393 58.8491C103.99 58.7293 103.68 58.5075 103.46 58.1835C103.242 57.8672 103.117 57.487 103.086 57.043Z" fill="white"/>
<path d="M103.018 65.3165C103.097 64.6534 103.327 64.0925 103.706 63.6336C104.093 63.1832 104.574 62.8982 105.15 62.7784L105.567 63.9615C105.188 64.0806 104.881 64.2696 104.644 64.5284C104.406 64.7949 104.266 65.1034 104.225 65.454C104.192 65.7283 104.228 65.9526 104.334 66.1269C104.44 66.3012 104.594 66.3999 104.797 66.4231C104.922 66.4373 105.028 66.4146 105.114 66.3549C105.207 66.3037 105.288 66.2241 105.356 66.116C105.432 66.0164 105.497 65.9041 105.551 65.7789L105.966 64.7949C106.185 64.2868 106.471 63.9139 106.824 63.676C107.176 63.4457 107.571 63.3555 108.008 63.4054C108.399 63.4499 108.727 63.5838 108.993 63.8073C109.266 64.0392 109.464 64.336 109.587 64.6977C109.709 65.0669 109.743 65.4764 109.69 65.926C109.619 66.5129 109.413 67.0146 109.07 67.4314C108.727 67.8481 108.283 68.1219 107.737 68.2528L107.323 67.0469C107.625 66.9731 107.877 66.8203 108.079 66.5884C108.28 66.3564 108.4 66.0842 108.437 65.7718C108.468 65.5203 108.433 65.3155 108.333 65.1573C108.233 64.9992 108.089 64.9094 107.902 64.8881C107.785 64.8747 107.68 64.8936 107.586 64.9448C107.493 64.996 107.413 65.0718 107.346 65.1723C107.277 65.2804 107.211 65.4041 107.147 65.5436L106.723 66.5034C106.506 66.9963 106.225 67.3621 105.879 67.6008C105.533 67.8472 105.134 67.9446 104.681 67.893C104.298 67.8494 103.97 67.7116 103.697 67.4796C103.432 67.2486 103.238 66.9484 103.116 66.5791C102.994 66.2099 102.961 65.789 103.018 65.3165Z" fill="white"/>
<path d="M104.973 76.3793L105.961 75.7631L106.742 76.9559L107.658 75.8811L108.562 76.602L107.657 77.6808L109.066 78.2089L108.644 79.2833L107.234 78.7553L107.167 80.1477L106.001 80.093L106.057 78.6965L104.659 79.0725L104.352 77.9588L105.75 77.5828L104.973 76.3793Z" fill="white"/>
<path d="M94.5709 86.1436C94.9532 85.6562 95.3974 85.273 95.9034 84.9939C96.4047 84.7209 96.9395 84.5503 97.5079 84.4821C98.0715 84.42 98.6388 84.4669 99.2096 84.6227C99.7805 84.7786 100.325 85.0501 100.843 85.4372C101.361 85.8243 101.775 86.2633 102.083 86.7543C102.392 87.256 102.586 87.7781 102.666 88.3206C102.747 88.8739 102.712 89.4229 102.562 89.9678C102.418 90.5174 102.155 91.0359 101.773 91.5233C101.39 92.0107 100.964 92.3834 100.495 92.6413C100.02 92.9053 99.5374 93.0665 99.0462 93.1247C98.5612 93.1875 98.1079 93.1533 97.6862 93.0219L98.0269 91.5081C98.4769 91.6413 98.9338 91.6396 99.3975 91.5028C99.8675 91.3708 100.272 91.0884 100.611 90.6558C100.946 90.2293 101.139 89.7746 101.191 89.2917C101.239 88.8149 101.153 88.3499 100.934 87.8966C100.711 87.4494 100.355 87.0439 99.8683 86.6801C99.3813 86.3163 98.8843 86.0852 98.3774 85.9867C97.8719 85.899 97.3894 85.9397 96.9301 86.1087C96.466 86.2838 96.0667 86.5846 95.7321 87.0111C95.3928 87.4437 95.2161 87.8962 95.2019 88.3688C95.1939 88.846 95.3146 89.2791 95.5639 89.6683L94.1555 90.3845C93.9154 90.0215 93.76 89.6011 93.6893 89.1231C93.6249 88.6498 93.6613 88.1553 93.7986 87.6394C93.9311 87.1296 94.1885 86.631 94.5709 86.1436Z" fill="white"/>
<path d="M88.0373 92.8769C88.5238 92.4877 89.0599 92.2424 89.6456 92.1409C90.2253 92.0443 90.7932 92.091 91.3494 92.281C91.8995 92.4759 92.3789 92.8167 92.7876 93.3033C93.1964 93.7898 93.4447 94.3154 93.5327 94.88C93.6146 95.4495 93.5501 96.0021 93.3393 96.5379C93.1285 97.0736 92.7769 97.5385 92.2843 97.9325C91.7979 98.3217 91.2648 98.5646 90.6852 98.6612C90.1055 98.7578 89.5406 98.7087 88.9905 98.5138C88.4393 98.3297 87.9569 97.9913 87.5431 97.4988C87.1344 97.0123 86.8891 96.4842 86.8072 95.9148C86.7253 95.3453 86.7898 94.7927 87.0006 94.2569C87.2114 93.7212 87.557 93.2612 88.0373 92.8769ZM88.9346 93.945C88.667 94.159 88.4853 94.4086 88.3893 94.6937C88.2872 94.9837 88.2707 95.2847 88.3396 95.5967C88.4074 95.9195 88.5584 96.2203 88.7927 96.4992C89.032 96.784 89.3021 96.9846 89.6032 97.1009C89.9032 97.228 90.2089 97.2712 90.5203 97.2304C90.8306 97.2005 91.1195 97.0784 91.3871 96.8644C91.6607 96.6455 91.8461 96.3881 91.9431 96.0922C92.0452 95.8022 92.0648 95.4987 92.002 95.1819C91.9381 94.8759 91.7865 94.5804 91.5472 94.2956C91.3129 94.0167 91.0433 93.8107 90.7383 93.6777C90.4323 93.5554 90.1236 93.5147 89.8121 93.5555C89.5007 93.5962 89.2082 93.7261 88.9346 93.945Z" fill="white"/>
<path d="M83.2366 96.6166L86.2155 102.162L84.9307 102.819L84.3448 101.728L84.5533 101.869C84.5999 102.269 84.5191 102.631 84.3109 102.954C84.0994 103.288 83.7917 103.558 83.3878 103.764C82.97 103.978 82.5534 104.079 82.1382 104.066C81.716 104.057 81.3286 103.939 80.9759 103.712C80.6269 103.492 80.3411 103.175 80.1184 102.76L78.2018 99.1923L79.5702 98.4922L81.317 101.744C81.4485 101.989 81.6104 102.174 81.8028 102.301C81.9952 102.428 82.204 102.494 82.4292 102.5C82.6511 102.517 82.8769 102.466 83.1067 102.349C83.3296 102.235 83.5007 102.082 83.62 101.891C83.743 101.707 83.8058 101.502 83.8083 101.275C83.8109 101.049 83.7465 100.813 83.6151 100.568L81.8683 97.3166L83.2366 96.6166Z" fill="white"/>
<path d="M73.0206 100.979C73.7079 100.759 74.3033 100.77 74.8069 101.013C75.3054 101.265 75.6673 101.727 75.8927 102.398L76.7748 105.022L77.8282 104.685L78.2582 105.965L78.1461 106.001C77.8472 106.096 77.6414 106.247 77.5285 106.453C77.4155 106.658 77.4081 106.907 77.5061 107.199L77.6604 107.658L76.1923 108.128L75.7366 106.772L74.3358 107.22L73.9058 105.94L75.3067 105.492L74.4504 102.944C74.3842 102.747 74.2943 102.59 74.1805 102.473C74.0592 102.359 73.9116 102.289 73.7377 102.264C73.5563 102.241 73.3461 102.268 73.107 102.344C73.0547 102.361 72.9961 102.384 72.9314 102.413C72.8591 102.444 72.7906 102.474 72.7258 102.503L72.3142 101.278C72.4139 101.23 72.5285 101.177 72.6581 101.119C72.7877 101.062 72.9085 101.015 73.0206 100.979Z" fill="white"/>
<path d="M68.1912 102.08C68.6343 102.014 69.0303 102.029 69.3793 102.125C69.7282 102.22 70.0128 102.388 70.2329 102.627C70.4543 102.873 70.5927 103.175 70.6483 103.531C70.7015 103.873 70.671 104.188 70.557 104.476C70.4441 104.772 70.2385 105.036 69.9404 105.266C69.6423 105.497 69.2505 105.687 68.7648 105.837L66.7408 106.475L66.5634 105.337L68.3013 104.776C68.5962 104.678 68.8068 104.55 68.9332 104.391C69.0596 104.233 69.1057 104.044 69.0714 103.824C69.0383 103.611 68.9301 103.453 68.7468 103.348C68.5568 103.252 68.3375 103.222 68.0887 103.259C67.77 103.307 67.5003 103.413 67.2794 103.577C67.0519 103.751 66.8904 103.965 66.7949 104.22C66.6917 104.476 66.6619 104.744 66.7057 105.025L66.9539 106.618C66.9953 106.883 67.1384 107.087 67.3833 107.229C67.6215 107.38 67.9155 107.429 68.2653 107.377C68.5918 107.329 68.8697 107.199 69.099 106.986C69.3218 106.782 69.4696 106.531 69.5424 106.233L70.8822 106.64C70.8087 106.984 70.6581 107.294 70.4305 107.568C70.1962 107.851 69.9071 108.088 69.563 108.279C69.219 108.47 68.8332 108.597 68.4056 108.661C67.8848 108.738 67.4114 108.711 66.9854 108.58C66.5606 108.457 66.2134 108.245 65.9437 107.943C65.6675 107.651 65.4951 107.284 65.4265 106.844L64.7845 102.725L66.2304 102.511L66.3953 103.569L66.0723 103.64C66.1942 103.35 66.3537 103.098 66.5507 102.882C66.7489 102.674 66.9842 102.5 67.2564 102.358C67.5298 102.225 67.8415 102.132 68.1912 102.08Z" fill="white"/>
<path d="M58.7669 102.731C59.4032 102.759 59.97 102.926 60.4675 103.232C60.9568 103.545 61.3355 103.953 61.6036 104.457C61.8713 104.968 61.9908 105.533 61.9622 106.154C61.9337 106.775 61.7628 107.325 61.4496 107.802C61.1364 108.28 60.7219 108.65 60.2062 108.912C59.6825 109.173 59.1026 109.289 58.4664 109.262C58.0108 109.242 57.5904 109.143 57.205 108.964C56.8194 108.794 56.4915 108.564 56.2214 108.276C55.9431 107.995 55.7498 107.664 55.6414 107.283L57.0228 106.767C57.1262 107.087 57.3148 107.349 57.5888 107.553C57.8549 107.756 58.1686 107.866 58.5299 107.882C58.8676 107.897 59.1738 107.829 59.4482 107.68C59.7148 107.531 59.9293 107.317 60.0916 107.04C60.2539 106.763 60.3435 106.441 60.3604 106.073C60.3773 105.705 60.3177 105.376 60.1815 105.086C60.0453 104.795 59.8514 104.564 59.5996 104.392C59.3399 104.219 59.0412 104.125 58.7034 104.111C58.3343 104.094 58.0078 104.176 57.7241 104.356C57.4404 104.535 57.2322 104.783 57.0995 105.1L55.7721 104.443C55.914 104.096 56.1329 103.787 56.4287 103.515C56.7242 103.252 57.072 103.048 57.4721 102.905C57.8719 102.768 58.3035 102.711 58.7669 102.731Z" fill="white"/>
<path d="M50.4635 101.717C51.1703 101.868 51.6777 102.172 51.9858 102.63C52.2845 103.094 52.3569 103.671 52.2029 104.361L51.6001 107.06L52.6833 107.29L52.3895 108.606L52.2743 108.581C51.967 108.516 51.7113 108.544 51.5071 108.665C51.3029 108.787 51.1674 108.997 51.1004 109.297L50.9949 109.77L49.4853 109.449L49.7967 108.054L48.3563 107.748L48.6501 106.432L50.0906 106.738L50.6757 104.118C50.7209 103.916 50.7248 103.736 50.6875 103.579C50.6425 103.42 50.5515 103.287 50.4146 103.179C50.27 103.07 50.0748 102.989 49.829 102.937C49.7752 102.926 49.7129 102.916 49.6421 102.909C49.5636 102.9 49.489 102.892 49.4181 102.885L49.6994 101.625C49.8103 101.633 49.9366 101.644 50.0782 101.659C50.2198 101.673 50.3483 101.693 50.4635 101.717Z" fill="white"/>
<path d="M42.1592 98.8333C42.6026 99.0488 42.9407 99.3331 43.1733 99.6861C43.3989 100.036 43.5121 100.425 43.5128 100.854C43.5065 101.28 43.3859 101.722 43.1511 102.183L41.4004 105.613L40.0174 104.941L41.7102 101.624C41.8294 101.39 41.8888 101.162 41.8884 100.939C41.8775 100.719 41.8104 100.515 41.687 100.327C41.5531 100.142 41.3735 99.9944 41.1483 99.8849C40.9231 99.7755 40.6979 99.7261 40.4729 99.7367C40.2444 99.7542 40.0353 99.8284 39.8456 99.959C39.656 100.09 39.498 100.279 39.3719 100.526L37.6948 103.812L36.3118 103.14L39.1717 97.5358L40.4809 98.172L39.9183 99.2744L39.9021 99.0222C40.2111 98.7437 40.5642 98.5939 40.9615 98.5727C41.3518 98.5481 41.751 98.6349 42.1592 98.8333Z" fill="white"/>
<path d="M34.9492 94.6398C35.4956 95.0414 35.8759 95.5179 36.0902 96.0693C36.2934 96.6221 36.3025 97.1715 36.1174 97.7175L34.8607 97.4709C34.9464 97.0921 34.9345 96.7376 34.8252 96.4074C34.7095 96.0726 34.5072 95.7991 34.2183 95.5867C33.9922 95.4205 33.7754 95.338 33.5678 95.3391C33.3603 95.3402 33.195 95.4205 33.072 95.5798C32.9963 95.6779 32.963 95.7783 32.9723 95.8811C32.9705 95.9855 33.0001 96.0937 33.0612 96.2059C33.1113 96.3195 33.1779 96.4309 33.261 96.5401L33.922 97.3862C34.2608 97.8273 34.4462 98.2566 34.4783 98.674C34.5042 99.0869 34.3847 99.4649 34.1198 99.8081C33.8832 100.115 33.5989 100.323 33.2669 100.435C32.9239 100.548 32.5614 100.565 32.1794 100.486C31.7912 100.402 31.4118 100.224 31.0412 99.9516C30.5576 99.5961 30.2181 99.1688 30.0226 98.6697C29.8271 98.1705 29.8093 97.6579 29.9692 97.1319L31.2448 97.3923C31.1577 97.6837 31.1657 97.973 31.2689 98.2601C31.3721 98.5473 31.5524 98.7855 31.8099 98.9748C32.0172 99.1272 32.2159 99.2012 32.4062 99.197C32.5965 99.1928 32.7484 99.1171 32.8619 98.97C32.9329 98.8781 32.9693 98.78 32.9711 98.6756C32.9729 98.5713 32.9464 98.4653 32.8915 98.3578C32.8304 98.2456 32.7544 98.1273 32.6635 98.0028L32.0284 97.1614C31.7022 96.7295 31.5207 96.3079 31.4838 95.8966C31.4407 95.4806 31.5563 95.0949 31.8307 94.7394C32.0625 94.4391 32.3499 94.2325 32.6929 94.1197C33.0313 94.0129 33.3945 94.0014 33.7828 94.085C34.171 94.1687 34.5598 94.3536 34.9492 94.6398Z" fill="white"/>
<path d="M24.1656 90.7028L24.2145 91.8459L22.7651 91.9051L23.2566 93.2179L22.1635 93.6178L21.6628 92.3122L20.4864 93.2354L19.7473 92.3385L20.9238 91.4153L19.7246 90.6579L20.3594 89.7019L21.5678 90.4521L21.9382 89.0833L23.0791 89.3843L22.7087 90.7531L24.1656 90.7028Z" fill="white"/>
<path d="M20.7377 77.0147C20.9772 77.5823 21.0933 78.1497 21.086 78.7169C21.0757 79.277 20.9579 79.8139 20.7325 80.3276C20.5041 80.8343 20.1773 81.2892 19.7522 81.6923C19.3271 82.0954 18.8128 82.4182 18.2093 82.6607C17.6059 82.9031 17.0093 83.0308 16.4195 83.0437C15.8195 83.0525 15.2592 82.954 14.7388 82.7482C14.208 82.5382 13.7391 82.2329 13.332 81.8323C12.9176 81.4345 12.5907 80.9518 12.3512 80.3842C12.1117 79.8166 11.9958 79.2699 12.0036 78.744C12.0083 78.2111 12.1084 77.7228 12.3039 77.2791C12.4921 76.8384 12.7504 76.4733 13.0788 76.1836L14.2483 77.2323C13.904 77.5448 13.6758 77.9311 13.5637 78.391C13.4444 78.8538 13.491 79.3371 13.7035 79.8409C13.913 80.3375 14.2186 80.7292 14.6202 81.016C15.0187 81.2956 15.4738 81.4571 15.9853 81.5006C16.4938 81.5369 17.0316 81.4411 17.5987 81.2133C18.1658 80.9855 18.6204 80.6825 18.9626 80.3044C19.2944 79.9221 19.501 79.4947 19.5823 79.0223C19.6606 78.5428 19.595 78.0547 19.3854 77.558C19.1729 77.0543 18.8609 76.6776 18.4495 76.428C18.0308 76.1813 17.5865 76.0653 17.1165 76.0799L17.1903 74.5317C17.6326 74.5117 18.0831 74.5921 18.542 74.7728C18.9936 74.9565 19.4133 75.2359 19.8012 75.6111C20.1861 75.9792 20.4983 76.4471 20.7377 77.0147Z" fill="white"/>
<path d="M18.0746 68.1262C18.1731 68.7325 18.1193 69.3079 17.9132 69.8525C17.706 70.3896 17.3778 70.8443 16.9289 71.2168C16.4787 71.5817 15.9352 71.8134 15.2984 71.9119C14.6616 72.0105 14.0713 71.9542 13.5275 71.7431C12.9825 71.5245 12.5263 71.1911 12.1589 70.743C11.7916 70.2949 11.558 69.7639 11.4583 69.1501C11.3598 68.5438 11.4141 67.9721 11.6214 67.4351C11.8287 66.8981 12.1575 66.4471 12.6077 66.0822C13.0489 65.711 13.5918 65.4755 14.2363 65.3757C14.8731 65.2772 15.464 65.3372 16.009 65.5559C16.554 65.7745 17.0102 66.1079 17.3776 66.556C17.745 67.0041 17.9773 67.5275 18.0746 68.1262ZM16.6768 68.3425C16.6226 68.0091 16.4936 67.7299 16.2899 67.5051C16.085 67.2727 15.8271 67.1067 15.5164 67.0072C15.1967 66.9013 14.8543 66.8766 14.4894 66.933C14.1166 66.9907 13.8028 67.117 13.5478 67.3118C13.2839 67.5002 13.0913 67.7359 12.9701 68.0188C12.8399 68.2953 12.8019 68.6003 12.8561 68.9337C12.9115 69.2748 13.0456 69.5609 13.2583 69.7921C13.4632 70.0245 13.7217 70.1943 14.0336 70.3014C14.3366 70.4021 14.6744 70.4236 15.0472 70.366C15.4122 70.3095 15.7305 70.1864 16.0022 69.9968C16.2649 69.8007 16.4568 69.5613 16.5781 69.2784C16.6993 68.9955 16.7322 68.6835 16.6768 68.3425Z" fill="white"/>
<path d="M17.192 62.1305L10.783 61.8399L10.8503 60.4258L12.1109 60.483L11.8816 60.5878C11.5037 60.4247 11.2244 60.1739 11.0437 59.8354C10.8556 59.4889 10.7721 59.0934 10.7932 58.6489C10.8151 58.189 10.9366 57.7874 11.1576 57.4441C11.3789 57.0931 11.6789 56.8263 12.0576 56.6438C12.4284 56.4609 12.8533 56.3803 13.3324 56.402L17.4558 56.589L17.3841 58.0951L13.6259 57.9247C13.3432 57.9119 13.0971 57.9545 12.8878 58.0525C12.6785 58.1506 12.5143 58.2929 12.3952 58.4795C12.2686 58.6581 12.1993 58.8739 12.1873 59.1269C12.1756 59.3721 12.2241 59.5932 12.3328 59.7902C12.4336 59.9868 12.5836 60.1434 12.7827 60.2599C12.9818 60.3765 13.2227 60.4412 13.5055 60.454L17.2637 60.6244L17.192 62.1305Z" fill="white"/>
<path d="M18.4815 51.336C18.3301 52.0262 18.0202 52.5226 17.5519 52.8249C17.0775 53.1182 16.4866 53.1909 15.7793 53.0432L13.0114 52.465L12.7794 53.5229L11.4301 53.2411L11.4547 53.1285C11.5206 52.8284 11.4909 52.579 11.3656 52.3802C11.2403 52.1814 11.024 52.0499 10.7164 51.9856L10.232 51.8845L10.5554 50.4101L11.9855 50.7088L12.294 49.3021L13.6434 49.5839L13.3348 50.9907L16.0219 51.552C16.2295 51.5953 16.4137 51.5985 16.5746 51.5615C16.7372 51.517 16.8733 51.4277 16.9831 51.2937C17.0946 51.1522 17.1766 50.9614 17.2293 50.7213C17.2408 50.6688 17.2501 50.608 17.2573 50.5388C17.266 50.4622 17.274 50.3893 17.2811 50.3202L18.5728 50.59C18.5651 50.6982 18.5541 50.8215 18.5399 50.9598C18.5257 51.098 18.5062 51.2234 18.4815 51.336Z" fill="white"/>
<path d="M19.9426 46.6989C19.7775 47.1055 19.5647 47.4318 19.3042 47.6777C19.0436 47.9236 18.7521 48.0791 18.4297 48.1442C18.0999 48.2065 17.7633 48.1712 17.4197 48.0384C17.0908 47.9112 16.8273 47.7268 16.6294 47.4852C16.4242 47.2408 16.2947 46.9348 16.241 46.5674C16.1872 46.2 16.2164 45.7738 16.3287 45.2891L16.7841 43.2615L17.8806 43.6855L17.5009 45.4328C17.4391 45.7308 17.4465 45.973 17.523 46.1594C17.5995 46.3458 17.7438 46.48 17.9558 46.562C18.1604 46.6411 18.3553 46.6299 18.5404 46.5281C18.7211 46.4164 18.8578 46.2464 18.9505 46.0182C19.0692 45.7257 19.1114 45.4449 19.0769 45.1757C19.038 44.8965 18.9299 44.6525 18.7525 44.4436C18.5781 44.2276 18.3556 44.0673 18.0852 43.9627L16.5501 43.3691C16.2943 43.2702 16.0418 43.2881 15.7926 43.4228C15.5389 43.5476 15.3469 43.7704 15.2166 44.0914C15.0949 44.391 15.0704 44.691 15.1429 44.9914C15.211 45.2819 15.3586 45.5329 15.5856 45.7445L14.5505 46.6689C14.2826 46.4332 14.0845 46.1503 13.9564 45.8201C13.8239 45.48 13.7599 45.1169 13.7645 44.7307C13.769 44.3446 13.851 43.9554 14.0103 43.563C14.2044 43.0851 14.4666 42.6996 14.7971 42.4065C15.1202 42.1105 15.4832 41.9249 15.8859 41.8495C16.2842 41.7642 16.6954 41.8035 17.1193 41.9674L21.0885 43.5023L20.5497 44.8291L19.53 44.4348L19.6297 44.1267C19.8247 44.3754 19.968 44.6372 20.0594 44.9119C20.1435 45.1837 20.1795 45.47 20.1673 45.7707C20.1479 46.0685 20.073 46.378 19.9426 46.6989Z" fill="white"/>
<path d="M24.0895 38.4839C23.7436 39.0058 23.3097 39.399 22.7878 39.6635C22.2636 39.9175 21.7113 40.0303 21.1308 40.0019C20.5436 39.9694 19.9827 39.7844 19.448 39.4468C18.9132 39.1093 18.5136 38.6879 18.2491 38.1828C17.9846 37.6778 17.8669 37.142 17.8959 36.5754C17.9292 36.0025 18.1188 35.4551 18.4647 34.9332C18.7124 34.5596 19.0124 34.2555 19.3645 34.0208C19.7101 33.7821 20.0786 33.6217 20.47 33.5398C20.859 33.4473 21.2495 33.4516 21.6413 33.5528L21.3998 34.9766C21.065 34.9024 20.7383 34.9292 20.4195 35.0569C20.105 35.1782 19.8495 35.387 19.6531 35.6834C19.4694 35.9604 19.3743 36.2522 19.3678 36.5588C19.3655 36.8589 19.4459 37.1472 19.609 37.4238C19.7722 37.7005 20.0122 37.9388 20.3291 38.1388C20.6459 38.3388 20.9671 38.4548 21.2925 38.4865C21.6179 38.5183 21.9204 38.4717 22.1999 38.3466C22.4838 38.2151 22.7175 38.0108 22.9011 37.7338C23.1019 37.431 23.1944 37.1147 23.1789 36.7851C23.1633 36.4554 23.0489 36.1547 22.8357 35.8831L24.0873 35.0968C24.3226 35.3916 24.4856 35.732 24.5761 36.1182C24.66 36.5001 24.6645 36.8959 24.5896 37.3056C24.5082 37.711 24.3414 38.1038 24.0895 38.4839Z" fill="white"/>
<path d="M29.1932 31.9867C28.7033 32.5061 28.178 32.7799 27.6172 32.8081C27.0559 32.8254 26.5091 32.5951 25.9769 32.1171L23.894 30.2467L23.1433 31.0428L22.1279 30.1309L22.2078 30.0462C22.4207 29.8204 22.525 29.5908 22.5207 29.3575C22.5163 29.1242 22.3984 28.9036 22.167 28.6958L21.8025 28.3685L22.8487 27.259L23.9248 28.2254L24.9231 27.1667L25.9385 28.0786L24.9402 29.1372L26.9623 30.9531C27.1185 31.0934 27.2755 31.1875 27.4334 31.2354C27.5966 31.2776 27.7603 31.2683 27.9247 31.2073C28.0943 31.1407 28.2643 31.017 28.4347 30.8364C28.472 30.7968 28.5117 30.7491 28.5538 30.6931C28.6013 30.6314 28.6461 30.5726 28.6882 30.5166L29.6602 31.3894C29.5972 31.4789 29.5236 31.5796 29.4393 31.6916C29.3551 31.8036 29.273 31.902 29.1932 31.9867Z" fill="white"/>
<path d="M35.9177 26.4455C35.504 26.7114 35.0824 26.8539 34.6526 26.8729C34.2295 26.8877 33.8277 26.7877 33.4473 26.5728C33.0734 26.3538 32.7416 26.0296 32.4517 25.6003L30.291 22.3999L31.5812 21.5704L33.6705 24.6651C33.8176 24.8829 33.9901 25.0477 34.1879 25.1594C34.3879 25.2605 34.6025 25.3063 34.8315 25.2969C35.0628 25.2769 35.2835 25.1993 35.4936 25.0642C35.7037 24.9291 35.8605 24.764 35.9641 24.5687C36.0634 24.3671 36.1027 24.1534 36.0822 23.9277C36.0616 23.7021 35.9735 23.4739 35.8177 23.2432L33.7479 20.1773L35.038 19.3478L38.5679 24.5762L37.3466 25.3613L36.6524 24.333L36.884 24.4459C36.9755 24.8465 36.9309 25.2197 36.7502 25.5657C36.576 25.9074 36.2985 26.2006 35.9177 26.4455Z" fill="white"/>
<path d="M43.2639 22.4629C42.6334 22.7218 42.0201 22.803 41.424 22.7065C40.8321 22.6 40.3409 22.3313 39.9505 21.9006L40.8008 20.9646C41.0933 21.2274 41.4132 21.3957 41.7607 21.4694C42.1153 21.5402 42.4594 21.5072 42.7927 21.3703C43.0536 21.2631 43.2358 21.1217 43.3392 20.9461C43.4426 20.7704 43.4546 20.5907 43.3753 20.4068C43.3265 20.2936 43.2543 20.2151 43.1586 20.1711C43.067 20.1172 42.9562 20.0877 42.8262 20.0829C42.7003 20.068 42.5682 20.0681 42.4297 20.0833L41.3479 20.2154C40.7868 20.2794 40.3133 20.2199 39.9274 20.0371C39.5487 19.8513 39.274 19.5604 39.1032 19.1643C38.9507 18.8107 38.9087 18.4659 38.977 18.1298C39.0495 17.7837 39.2168 17.4694 39.4789 17.1869C39.7482 16.9015 40.0967 16.671 40.5243 16.4954C41.0823 16.2663 41.6315 16.1947 42.1719 16.2808C42.7124 16.3669 43.1753 16.6097 43.5608 17.0091L42.6888 17.9541C42.4745 17.7341 42.2142 17.5954 41.9079 17.538C41.6017 17.4807 41.3 17.513 41.0029 17.635C40.7637 17.7332 40.5982 17.8636 40.5062 18.0262C40.4143 18.1889 40.4049 18.3551 40.4781 18.5248C40.5238 18.6309 40.5925 18.7109 40.684 18.7649C40.7755 18.8189 40.8827 18.8498 41.0055 18.8576C41.1355 18.8625 41.2786 18.8579 41.4346 18.8438L42.4992 18.7312C43.0458 18.6732 43.5105 18.7321 43.8934 18.9079C44.2835 19.0807 44.567 19.3722 44.7439 19.7823C44.8933 20.1289 44.9318 20.4752 44.8592 20.8213C44.7837 21.1604 44.6112 21.4726 44.3419 21.758C44.0726 22.0434 43.7132 22.2784 43.2639 22.4629Z" fill="white"/>
<path d="M52.1691 15.3613L51.1333 14.8253L51.8129 13.5746L50.4036 13.3256L50.602 12.2029L52.0095 12.4406L51.7871 10.9834L52.9536 10.8139L53.176 12.271L54.4515 11.6435L54.9764 12.661L53.7027 13.2999L54.7262 14.3031L53.8839 15.1121L52.8603 14.1089L52.1691 15.3613Z" fill="white"/>
</svg>
