<svg width="40" height="40" viewBox="0 0 40 40" fill="none" xmlns="http://www.w3.org/2000/svg">
<path d="M24.2859 14.2856C25.8638 14.2856 27.143 13.0064 27.143 11.4284C27.143 9.85048 25.8638 8.57129 24.2859 8.57129C22.7079 8.57129 21.4287 9.85048 21.4287 11.4284C21.4287 13.0064 22.7079 14.2856 24.2859 14.2856Z" stroke="white" stroke-width="1.5" stroke-linecap="round" stroke-linejoin="round"/>
<path d="M12.8573 28.572C13.6463 28.572 14.2859 27.9324 14.2859 27.1434C14.2859 26.3544 13.6463 25.7148 12.8573 25.7148C12.0683 25.7148 11.4287 26.3544 11.4287 27.1434C11.4287 27.9324 12.0683 28.572 12.8573 28.572Z" stroke="white" stroke-width="1.5" stroke-linecap="round" stroke-linejoin="round"/>
<path d="M12.8571 18.5717C14.4351 18.5717 15.7143 17.2925 15.7143 15.7146C15.7143 14.1366 14.4351 12.8574 12.8571 12.8574C11.2792 12.8574 10 14.1366 10 15.7146C10 17.2925 11.2792 18.5717 12.8571 18.5717Z" stroke="white" stroke-width="1.5" stroke-linecap="round" stroke-linejoin="round"/>
<path d="M27.2003 35.0859C27.1684 34.5317 26.9758 33.9987 26.646 33.5522C26.3162 33.1057 25.8635 32.7649 25.3431 32.5716C24.0508 32.1468 22.9525 31.275 22.2455 30.1129C21.5385 28.9508 21.2692 27.5746 21.4862 26.2317C21.7031 24.8888 22.392 23.6674 23.4289 22.787C24.4658 21.9066 25.7828 21.425 27.1431 21.4287H32.486C33.4023 21.4313 34.3059 21.2134 35.1204 20.7935C35.9349 20.3736 36.6365 19.7639 37.1659 19.016C37.6953 18.268 38.0371 17.4037 38.1625 16.4959C38.2878 15.5882 38.193 14.6636 37.886 13.8001C36.7496 10.5915 34.7532 7.75687 32.1149 5.60599C29.4766 3.45512 26.2979 2.07072 22.926 1.60407C19.5542 1.13741 16.119 1.60644 12.9957 2.95991C9.87239 4.31339 7.18116 6.49924 5.21601 9.27865C3.25087 12.0581 2.08742 15.3241 1.85278 18.72C1.61813 22.1158 2.32132 25.5109 3.88551 28.5341C5.44971 31.5574 7.81473 34.0926 10.7222 35.8628C13.6297 37.633 16.9677 38.57 20.3717 38.5716C22.0527 38.5763 23.7261 38.3455 25.3431 37.8859C25.937 37.7194 26.4513 37.3451 26.7922 36.8311C27.1331 36.3171 27.278 35.6977 27.2003 35.0859V35.0859Z" stroke="white" stroke-width="1.5" stroke-linecap="round" stroke-linejoin="round"/>
</svg>
