<svg width="24" height="24" viewBox="0 0 24 24" fill="none" xmlns="http://www.w3.org/2000/svg">
<path d="M22.624 5.23012C22.5388 5.10617 22.4222 5.01099 22.288 4.95583L12.688 1.0644C12.5972 1.02193 12.4991 1 12.4 1C12.3009 1 12.2028 1.02193 12.112 1.0644L2.512 5.0244C2.38517 5.06039 2.26933 5.13131 2.176 5.23012C2.06424 5.37498 2.00213 5.55647 2 5.7444V18.293C2.00207 18.4642 2.05195 18.6308 2.14321 18.7713C2.23446 18.9119 2.36291 19.0199 2.512 19.0815L12.112 23.0415H12.4H12.688L22.288 19.0815C22.4371 19.0199 22.5655 18.9119 22.6568 18.7713C22.748 18.6308 22.7979 18.4642 22.8 18.293V5.81297C22.8135 5.60166 22.7505 5.39289 22.624 5.23012V5.23012Z" stroke="white" stroke-width="1.5" stroke-linecap="round" stroke-linejoin="round"/>
<path d="M12.3984 23.1613V9.51562" stroke="white" stroke-width="1.5" stroke-linecap="round" stroke-linejoin="round"/>
<path d="M12.3984 9.51562V23.1613" stroke="white" stroke-width="1.5" stroke-linecap="round" stroke-linejoin="round"/>
<path d="M2.17578 5.29883L12.3998 9.51597L22.6238 5.29883" stroke="white" stroke-width="1.5" stroke-linecap="round" stroke-linejoin="round"/>
</svg>
