<svg width="65" height="50" viewBox="0 0 65 50" fill="none" xmlns="http://www.w3.org/2000/svg">
<path opacity="0.2" d="M40.5273 45.3897C46.3357 42.1079 49.9176 38.3869 52.1426 34.7754C54.4274 31.0667 55.2647 27.5001 55.6357 24.6982L55.7725 23.666L54.8818 24.2041C53.1813 25.2314 50.7501 25.5964 48.2734 25.2402L48.2578 25.2383C41.9192 24.5292 37.0166 19.5795 37.0166 12.8672C37.0167 9.70912 38.4119 6.51993 40.5342 4.01953C42.9857 1.55617 45.7718 0.500002 49.2978 0.500001C53.1665 0.500031 56.6907 2.27334 58.7969 4.39063C62.3645 8.34547 64.4999 12.6384 64.5 19.8525C64.5 32.3442 55.7181 43.4923 43.2617 49.3672L40.5273 45.3897ZM4.00977 45.3906C9.8188 42.1087 13.4009 38.3871 15.626 34.7754C17.9108 31.0667 18.7481 27.5001 19.1191 24.6982L19.2559 23.666L18.3652 24.2041C16.6647 25.2313 14.2334 25.5964 11.7568 25.2402L11.7412 25.2383C5.40257 24.5292 0.499997 19.5795 0.499997 12.8672C0.50013 9.70148 1.90128 6.50408 4.03222 4.00098C6.09937 1.57294 9.22481 0.500005 12.7812 0.500005C16.6498 0.50011 20.1741 2.27333 22.2803 4.39063C25.8479 8.34543 27.9833 12.6385 27.9834 19.8525C27.9834 32.3442 19.2016 43.4933 6.74512 49.3682L4.00977 45.3906Z" stroke="white"/>
</svg>
