<svg width="40" height="40" viewBox="0 0 40 40" fill="none" xmlns="http://www.w3.org/2000/svg">
<g clip-path="url(#clip0_1_8795)">
<path d="M9.28573 17.1428C13.6251 17.1428 17.1429 13.625 17.1429 9.28561C17.1429 4.94623 13.6251 1.42847 9.28573 1.42847C4.94635 1.42847 1.42859 4.94623 1.42859 9.28561C1.42859 13.625 4.94635 17.1428 9.28573 17.1428Z" stroke="#8B5E3C" stroke-width="1.5" stroke-linecap="round" stroke-linejoin="round"/>
<path d="M30.7143 17.1428C35.0537 17.1428 38.5715 13.625 38.5715 9.28561C38.5715 4.94623 35.0537 1.42847 30.7143 1.42847C26.3749 1.42847 22.8572 4.94623 22.8572 9.28561C22.8572 13.625 26.3749 17.1428 30.7143 17.1428Z" stroke="#8B5E3C" stroke-width="1.5" stroke-linecap="round" stroke-linejoin="round"/>
<path d="M9.28573 38.5712C13.6251 38.5712 17.1429 35.0535 17.1429 30.7141C17.1429 26.3747 13.6251 22.8569 9.28573 22.8569C4.94635 22.8569 1.42859 26.3747 1.42859 30.7141C1.42859 35.0535 4.94635 38.5712 9.28573 38.5712Z" stroke="#8B5E3C" stroke-width="1.5" stroke-linecap="round" stroke-linejoin="round"/>
<path d="M30.7143 38.5712C35.0537 38.5712 38.5715 35.0535 38.5715 30.7141C38.5715 26.3747 35.0537 22.8569 30.7143 22.8569C26.3749 22.8569 22.8572 26.3747 22.8572 30.7141C22.8572 35.0535 26.3749 38.5712 30.7143 38.5712Z" stroke="#8B5E3C" stroke-width="1.5" stroke-linecap="round" stroke-linejoin="round"/>
</g>
<defs>
<clipPath id="clip0_1_8795">
<rect width="40" height="40" fill="white"/>
</clipPath>
</defs>
</svg>
