<svg width="24" height="24" viewBox="0 0 24 24" fill="none" xmlns="http://www.w3.org/2000/svg">
<path d="M19.7147 8.57143C19.7147 12.84 12.0004 23.1429 12.0004 23.1429C12.0004 23.1429 4.28613 12.84 4.28613 8.57143C4.28613 6.52548 5.09889 4.56332 6.54559 3.11661C7.9923 1.6699 9.95446 0.857147 12.0004 0.857147C14.0464 0.857147 16.0085 1.6699 17.4552 3.11661C18.902 4.56332 19.7147 6.52548 19.7147 8.57143V8.57143Z" stroke="#8B5E3C" stroke-width="1.5" stroke-linecap="round" stroke-linejoin="round"/>
<path d="M12.0001 11.1429C13.4203 11.1429 14.5716 9.99159 14.5716 8.57143C14.5716 7.15127 13.4203 6 12.0001 6C10.58 6 9.42871 7.15127 9.42871 8.57143C9.42871 9.99159 10.58 11.1429 12.0001 11.1429Z" stroke="#8B5E3C" stroke-width="1.5" stroke-linecap="round" stroke-linejoin="round"/>
</svg>
