<svg width="20" height="20" viewBox="0 0 20 20" fill="none" xmlns="http://www.w3.org/2000/svg">
<g clip-path="url(#clip0_11_54272)">
<path fill-rule="evenodd" clip-rule="evenodd" d="M9.76653 0.676086C9.79769 0.571324 9.89424 0.499023 10.0038 0.499023C10.1133 0.499023 10.2098 0.571324 10.241 0.676086C10.241 0.676086 10.6752 2.13156 11.1406 3.69267C11.8822 6.1798 13.8278 8.12534 16.3149 8.86692C17.876 9.33232 19.3314 9.76653 19.3314 9.76653C19.4362 9.7977 19.5085 9.89425 19.5085 10.0038C19.5085 10.1133 19.4362 10.2098 19.3314 10.241C19.3314 10.241 17.876 10.6752 16.3149 11.1406C13.8278 11.8822 11.8822 13.8278 11.1406 16.3149C10.6752 17.876 10.241 19.3315 10.241 19.3315C10.2098 19.4362 10.1133 19.5085 10.0038 19.5085C9.89424 19.5085 9.79769 19.4362 9.76653 19.3315C9.76653 19.3315 9.33231 17.876 8.86692 16.3149C8.12533 13.8278 6.17979 11.8822 3.69266 11.1406C2.13156 10.6752 0.676086 10.241 0.676086 10.241C0.571318 10.2098 0.499023 10.1133 0.499023 10.0038C0.499023 9.89425 0.571318 9.7977 0.676086 9.76653C0.676086 9.76653 2.13156 9.33232 3.69266 8.86692C6.17979 8.12534 8.12534 6.1798 8.86692 3.69267C9.33231 2.13156 9.76653 0.676086 9.76653 0.676086Z" fill="#8B5E3C"/>
</g>
<defs>
<clipPath id="clip0_11_54272">
<rect width="20" height="20" fill="white"/>
</clipPath>
</defs>
</svg>
