<svg width="24" height="24" viewBox="0 0 24 24" fill="none" xmlns="http://www.w3.org/2000/svg">
<path d="M18.2404 2.64014H5.76037C5.47265 2.64804 5.19083 2.72354 4.93769 2.86053C4.68455 2.99752 4.46721 3.19216 4.30323 3.42871L1.18323 7.74871C0.95155 8.07609 0.83585 8.47147 0.854484 8.87211C0.873118 9.27274 1.02502 9.65567 1.28608 9.96014L10.6461 20.743C10.8063 20.9495 11.0117 21.1166 11.2464 21.2315C11.4811 21.3465 11.739 21.4062 12.0004 21.4062C12.2617 21.4062 12.5196 21.3465 12.7544 21.2315C12.9891 21.1166 13.1944 20.9495 13.3547 20.743L22.7147 9.96014C22.9757 9.65567 23.1276 9.27274 23.1463 8.87211C23.1649 8.47147 23.0492 8.07609 22.8175 7.74871L19.6975 3.42871C19.5335 3.19216 19.3162 2.99752 19.063 2.86053C18.8099 2.72354 18.5281 2.64804 18.2404 2.64014V2.64014Z" stroke="white" stroke-width="1.5" stroke-linecap="round" stroke-linejoin="round"/>
<path d="M11.1086 2.62305L6.92578 9.10305L12.0001 21.3602" stroke="white" stroke-width="1.5" stroke-linecap="round" stroke-linejoin="round"/>
<path d="M12.9429 2.62305L17.1086 9.10305L12 21.3602" stroke="white" stroke-width="1.5" stroke-linecap="round" stroke-linejoin="round"/>
<path d="M0.891846 9.10303H23.109" stroke="white" stroke-width="1.5" stroke-linecap="round" stroke-linejoin="round"/>
</svg>
