<svg width="24" height="24" viewBox="0 0 24 24" fill="none" xmlns="http://www.w3.org/2000/svg">
<g clip-path="url(#clip0_463_249)">
<path d="M15.0199 22.2841C16.0756 22.9652 17.3336 23.262 18.5824 23.1246C19.8312 22.9872 20.9946 22.4241 21.8771 21.5298L22.6485 20.7755C22.9867 20.4296 23.1761 19.965 23.1761 19.4812C23.1761 18.9974 22.9867 18.5329 22.6485 18.1869L19.3742 14.9469C19.0312 14.6098 18.5694 14.4209 18.0885 14.4209C17.6075 14.4209 17.1458 14.6098 16.8028 14.9469V14.9469C16.4568 15.2851 15.9923 15.4745 15.5085 15.4745C15.0247 15.4745 14.5601 15.2851 14.2142 14.9469L9.07134 9.80408C8.89978 9.63501 8.76354 9.43352 8.67055 9.21133C8.57756 8.98913 8.52967 8.75067 8.52967 8.5098C8.52967 8.26893 8.57756 8.03046 8.67055 7.80827C8.76354 7.58607 8.89978 7.38458 9.07134 7.21551V7.21551C9.40846 6.87248 9.59737 6.41076 9.59737 5.9298C9.59737 5.44884 9.40846 4.98712 9.07134 4.64408L5.8142 1.38694C5.46827 1.04874 5.0037 0.859375 4.51991 0.859375C4.03613 0.859375 3.57156 1.04874 3.22563 1.38694L2.47134 2.15837C1.57708 3.04078 1.01391 4.2042 0.876547 5.453C0.739179 6.7018 1.03598 7.95981 1.71705 9.01551C5.2657 14.2453 9.78095 18.7489 15.0199 22.2841V22.2841Z" stroke="white" stroke-width="1.5" stroke-linecap="round" stroke-linejoin="round"/>
</g>
<defs>
<clipPath id="clip0_463_249">
<rect width="24" height="24" fill="white"/>
</clipPath>
</defs>
</svg>
