<svg width="40" height="40" viewBox="0 0 40 40" fill="none" xmlns="http://www.w3.org/2000/svg">
<g clip-path="url(#clip0_11_54177)">
<path d="M25.1716 34.4859C23.8809 35.7766 22.3486 36.8004 20.6622 37.4989C18.9759 38.1975 17.1684 38.557 15.3431 38.557C11.6566 38.557 8.12119 37.0926 5.51449 34.4859C2.90779 31.8792 1.44336 28.3437 1.44336 24.6573C1.44336 20.9709 2.90779 17.4354 5.51449 14.8287L18.9145 1.42871L25.1716 7.68585L12.8859 20.0001C12.0962 20.9711 11.6946 22.2004 11.7587 23.4504C11.8229 24.7003 12.3483 25.882 13.2333 26.767C14.1183 27.6521 15.3 28.1774 16.55 28.2416C17.7999 28.3058 19.0292 27.9041 20.0002 27.1144L32.2859 14.8287L38.5716 21.0859L25.1716 34.4859Z" stroke="white" stroke-width="1.5" stroke-linecap="round" stroke-linejoin="round"/>
<path d="M26.2578 20.8857L32.515 27.1429" stroke="white" stroke-width="1.5" stroke-linecap="round" stroke-linejoin="round"/>
<path d="M12.8574 7.48633L19.1146 13.7435" stroke="white" stroke-width="1.5" stroke-linecap="round" stroke-linejoin="round"/>
</g>
<defs>
<clipPath id="clip0_11_54177">
<rect width="40" height="40" fill="white"/>
</clipPath>
</defs>
</svg>
