<svg width="20" height="20" viewBox="0 0 20 20" fill="none" xmlns="http://www.w3.org/2000/svg">
<g clip-path="url(#clip0_1_8522)">
<path d="M2.14342 8.57129H3.57199C3.76143 8.57129 3.94311 8.64654 4.07706 8.7805C4.21102 8.91445 4.28627 9.09613 4.28627 9.28557V12.857C4.28627 13.0464 4.21102 13.2281 4.07706 13.3621C3.94311 13.496 3.76143 13.5713 3.57199 13.5713H2.14342C1.76453 13.5713 1.40117 13.4208 1.13326 13.1529C0.865354 12.885 0.714844 12.5216 0.714844 12.1427V9.99986C0.714844 9.62098 0.865354 9.25762 1.13326 8.98971C1.40117 8.7218 1.76453 8.57129 2.14342 8.57129V8.57129Z" stroke="white" stroke-linecap="round" stroke-linejoin="round"/>
<path d="M17.8605 13.5713H16.4319C16.2425 13.5713 16.0608 13.496 15.9268 13.3621C15.7929 13.2281 15.7176 13.0464 15.7176 12.857V9.28557C15.7176 9.09613 15.7929 8.91445 15.9268 8.7805C16.0608 8.64654 16.2425 8.57129 16.4319 8.57129H17.8605C18.2394 8.57129 18.6027 8.7218 18.8706 8.98971C19.1386 9.25762 19.2891 9.62098 19.2891 9.99986V12.1427C19.2891 12.5216 19.1386 12.885 18.8706 13.1529C18.6027 13.4208 18.2394 13.5713 17.8605 13.5713V13.5713Z" stroke="white" stroke-linecap="round" stroke-linejoin="round"/>
<path d="M13.5703 17.4999C14.3281 17.4999 15.0548 17.1988 15.5906 16.663C16.1264 16.1272 16.4275 15.4005 16.4275 14.6427V13.5713" stroke="white" stroke-linecap="round" stroke-linejoin="round"/>
<path d="M11.7879 15.7139C12.2615 15.7139 12.7158 15.902 13.0506 16.2369C13.3855 16.5718 13.5737 17.026 13.5737 17.4996C13.5737 17.9732 13.3855 18.4274 13.0506 18.7623C12.7158 19.0972 12.2615 19.2853 11.7879 19.2853H9.64509C9.17149 19.2853 8.71729 19.0972 8.3824 18.7623C8.04751 18.4274 7.85938 17.9732 7.85938 17.4996C7.85938 17.026 8.04751 16.5718 8.3824 16.2369C8.71729 15.902 9.17149 15.7139 9.64509 15.7139H11.7879Z" stroke="white" stroke-linecap="round" stroke-linejoin="round"/>
<path d="M3.57031 8.57101V7.14244C3.57031 5.43748 4.24761 3.80234 5.4532 2.59675C6.65879 1.39116 8.29392 0.713867 9.99888 0.713867C11.7038 0.713867 13.339 1.39116 14.5446 2.59675C15.7502 3.80234 16.4275 5.43748 16.4275 7.14244V8.57101" stroke="white" stroke-linecap="round" stroke-linejoin="round"/>
<path d="M7.85938 5.71387V7.85672" stroke="white" stroke-linecap="round" stroke-linejoin="round"/>
<path d="M12.1406 5.71387V7.85672" stroke="white" stroke-linecap="round" stroke-linejoin="round"/>
<path d="M7.85938 10.7139C7.85938 12.6139 12.1451 12.6139 12.1451 10.7139" stroke="white" stroke-linecap="round" stroke-linejoin="round"/>
</g>
<defs>
<clipPath id="clip0_1_8522">
<rect width="20" height="20" fill="white"/>
</clipPath>
</defs>
</svg>
