<svg width="40" height="40" viewBox="0 0 40 40" fill="none" xmlns="http://www.w3.org/2000/svg">
<g clip-path="url(#clip0_1_8786)">
<path d="M14.9992 23.5713H2.85631C2.06733 23.5713 1.42773 24.2109 1.42773 24.9999V37.1427C1.42773 37.9317 2.06733 38.5713 2.85631 38.5713H14.9992C15.7881 38.5713 16.4277 37.9317 16.4277 37.1427V24.9999C16.4277 24.2109 15.7881 23.5713 14.9992 23.5713Z" stroke="#8B5E3C" stroke-width="1.5" stroke-linecap="round" stroke-linejoin="round"/>
<path d="M37.1417 23.571H24.9989C24.2099 23.571 23.5703 24.2106 23.5703 24.9996V37.1425C23.5703 37.9315 24.2099 38.571 24.9989 38.571H37.1417C37.9307 38.571 38.5703 37.9315 38.5703 37.1425V24.9996C38.5703 24.2106 37.9307 23.571 37.1417 23.571Z" stroke="#8B5E3C" stroke-width="1.5" stroke-linecap="round" stroke-linejoin="round"/>
<path d="M26.0851 1.42847H13.9422C13.1533 1.42847 12.5137 2.06806 12.5137 2.85704V14.9999C12.5137 15.7889 13.1533 16.4285 13.9422 16.4285H26.0851C26.8741 16.4285 27.5137 15.7889 27.5137 14.9999V2.85704C27.5137 2.06806 26.8741 1.42847 26.0851 1.42847Z" stroke="#8B5E3C" stroke-width="1.5" stroke-linecap="round" stroke-linejoin="round"/>
</g>
<defs>
<clipPath id="clip0_1_8786">
<rect width="40" height="40" fill="white"/>
</clipPath>
</defs>
</svg>
