<svg width="24" height="24" viewBox="0 0 24 24" fill="none" xmlns="http://www.w3.org/2000/svg">
<g clip-path="url(#clip0_153_57)">
<path d="M8.9993 14.1428H1.71359C1.2402 14.1428 0.856445 14.5266 0.856445 15V22.2857C0.856445 22.7591 1.2402 23.1428 1.71359 23.1428H8.9993C9.47269 23.1428 9.85645 22.7591 9.85645 22.2857V15C9.85645 14.5266 9.47269 14.1428 8.9993 14.1428Z" stroke="#8B5E3C" stroke-width="1.5" stroke-linecap="round" stroke-linejoin="round"/>
<path d="M22.2845 14.1426H14.9987C14.5254 14.1426 14.1416 14.5263 14.1416 14.9997V22.2854C14.1416 22.7588 14.5254 23.1426 14.9987 23.1426H22.2845C22.7578 23.1426 23.1416 22.7588 23.1416 22.2854V14.9997C23.1416 14.5263 22.7578 14.1426 22.2845 14.1426Z" stroke="#8B5E3C" stroke-width="1.5" stroke-linecap="round" stroke-linejoin="round"/>
<path d="M15.6507 0.857056H8.36496C7.89157 0.857056 7.50781 1.24081 7.50781 1.7142V8.99991C7.50781 9.4733 7.89157 9.85706 8.36496 9.85706H15.6507C16.1241 9.85706 16.5078 9.4733 16.5078 8.99991V1.7142C16.5078 1.24081 16.1241 0.857056 15.6507 0.857056Z" stroke="#8B5E3C" stroke-width="1.5" stroke-linecap="round" stroke-linejoin="round"/>
</g>
<defs>
<clipPath id="clip0_153_57">
<rect width="24" height="24" fill="white"/>
</clipPath>
</defs>
</svg>
