<svg width="235" height="235" viewBox="0 0 235 235" fill="none" xmlns="http://www.w3.org/2000/svg">
<path d="M117.5 2.39316e-05C119.763 0.00435809 121.987 0.590651 123.959 1.70217C125.931 2.81374 127.584 4.41339 128.759 6.34768C141.091 26.7104 155.831 45.514 172.659 62.3516C189.498 79.1979 208.305 93.9545 228.674 106.302C230.606 107.481 232.203 109.137 233.311 111.11C234.418 113.084 235 115.31 235 117.573C235 119.837 234.418 122.062 233.311 124.036C232.203 126.01 230.606 127.666 228.674 128.845C187.867 153.636 153.617 187.874 128.812 228.674C127.633 230.606 125.977 232.203 124.003 233.311C122.029 234.418 119.804 235 117.541 235C115.278 235 113.052 234.418 111.078 233.311C109.104 232.203 107.449 230.606 106.27 228.674C93.9003 208.251 79.1072 189.398 62.2119 172.526C45.4121 155.754 26.6563 141.063 6.34964 128.769C4.4151 127.594 2.81512 125.94 1.70315 123.969C0.591319 121.997 0.00484498 119.773 2.96047e-05 117.51C-0.00476232 115.246 0.572251 113.019 1.67581 111.043C2.77937 109.067 4.3724 107.408 6.30179 106.225C26.6117 93.8127 45.3797 79.0368 62.2119 62.2071C79.0372 45.377 93.8086 26.6121 106.217 6.30471C107.4 4.37481 109.058 2.78084 111.034 1.67678C113.01 0.572753 115.237 -0.00428278 117.5 2.39316e-05Z" fill="#D9D9D9"/>
</svg>
