<svg width="235" height="235" viewBox="0 0 235 235" fill="none" xmlns="http://www.w3.org/2000/svg">
<path d="M0.175601 152.092C-0.162724 153.314 -0.017728 154.583 0.658922 155.664L25.0666 196.789C26.4199 199.045 29.3682 199.797 31.6881 198.528L88.2367 166.756V230.3C88.2367 232.885 90.4117 235 93.0699 235H141.934C144.592 235 146.767 232.885 146.767 230.3V166.756L203.315 198.528C204.427 199.139 205.78 199.327 206.989 198.998C208.245 198.669 209.309 197.87 209.937 196.789L234.345 155.664C235.698 153.408 234.876 150.541 232.605 149.272L176.008 117.5L232.605 85.728C233.668 85.117 234.49 84.083 234.828 82.861C235.166 81.686 234.973 80.37 234.345 79.289L209.937 38.164C208.584 35.908 205.635 35.156 203.315 36.472L146.767 68.197V4.7C146.767 2.115 144.592 0 141.934 0H93.0699C90.4117 0 88.2367 2.115 88.2367 4.7V68.197L31.6881 36.472C29.3682 35.156 26.4199 35.908 25.0666 38.164L0.658922 79.289C-0.017728 80.37 -0.162724 81.686 0.175601 82.861C0.513926 84.083 1.28724 85.117 2.39888 85.728L58.9958 117.5L2.39888 149.272C1.28724 149.883 0.513926 150.917 0.175601 152.092Z" fill="#D9D9D9"/>
</svg>
