<svg width="235" height="235" viewBox="0 0 235 235" fill="none" xmlns="http://www.w3.org/2000/svg">
<path d="M235 117.5C235 102.524 222.846 90.37 207.87 90.37H182.992L200.599 72.7626C211.207 62.1548 211.207 44.9815 200.599 34.4008C189.991 23.8201 172.818 23.793 162.237 34.4008L144.63 52.0082V27.13C144.63 12.1542 132.476 0 117.5 0C102.524 0 90.37 12.1542 90.37 27.13V52.0082L72.7626 34.4008C62.1548 23.793 44.9815 23.793 34.4008 34.4008C23.8201 45.0087 23.793 62.1819 34.4008 72.7626L52.0082 90.37H27.13C12.1542 90.37 0 102.524 0 117.5C0 132.476 12.1542 144.63 27.13 144.63H52.0082L34.4008 162.237C23.793 172.845 23.793 190.018 34.4008 200.599C45.0087 211.207 62.1819 211.207 72.7626 200.599L90.37 182.992V207.87C90.37 222.846 102.524 235 117.5 235C132.476 235 144.63 222.846 144.63 207.87V182.992L162.237 200.599C172.845 211.207 190.018 211.207 200.599 200.599C211.207 189.991 211.207 172.818 200.599 162.237L182.992 144.63H207.87C222.846 144.63 235 132.476 235 117.5Z" fill="#D9D9D9"/>
</svg>
