<svg width="42" height="42" viewBox="0 0 42 42" fill="none" xmlns="http://www.w3.org/2000/svg">
<path d="M3.96771 34.2995C1.63437 31.7328 0.234375 28.9328 0.234375 24.2661C0.234375 16.0995 6.06771 8.86615 14.2344 5.13281L16.3344 8.16615C8.63438 12.3661 7.00104 17.7328 6.53438 21.2328C7.70104 20.5328 9.33438 20.2995 10.9677 20.5328C15.1677 20.9995 18.4344 24.2661 18.4344 28.6995C18.4344 30.7995 17.501 32.8995 16.101 34.5328C14.4677 36.1661 12.601 36.8661 10.2677 36.8661C7.70104 36.8661 5.36771 35.6995 3.96771 34.2995ZM27.301 34.2995C24.9677 31.7328 23.5677 28.9328 23.5677 24.2661C23.5677 16.0995 29.401 8.86615 37.5677 5.13281L39.6677 8.16615C31.9677 12.3661 30.3344 17.7328 29.8677 21.2328C31.0344 20.5328 32.6677 20.2995 34.301 20.5328C38.501 20.9995 41.7677 24.2661 41.7677 28.6995C41.7677 30.7995 40.8344 32.8995 39.4344 34.5328C38.0344 36.1661 35.9344 36.8661 33.601 36.8661C31.0344 36.8661 28.701 35.6995 27.301 34.2995Z" fill="#8B5E3C"/>
</svg>
