<svg width="152" height="152" viewBox="0 0 152 152" fill="none" xmlns="http://www.w3.org/2000/svg">
<rect x="3" y="3" width="146" height="146" rx="73" fill="#8B5E3C" stroke="white" stroke-width="6"/>
<path d="M80.0396 24.76L80.4747 20.1342L77.3477 14L79.6166 14.1957L82 18.9798L81.1949 18.9104L84.4181 14.6099L86.6871 14.8056L82.4815 20.2931L82.0451 24.9329L80.0396 24.76Z" fill="white"/>
<path d="M90.3131 26.6432C89.5225 26.4241 88.8824 26.0612 88.393 25.5543C87.9035 25.0475 87.5826 24.4556 87.4302 23.7784C87.2778 23.1013 87.3092 22.4067 87.5244 21.6947C87.7477 20.9556 88.1099 20.3478 88.611 19.8713C89.1241 19.3883 89.7182 19.0597 90.3931 18.8853C91.0775 18.7135 91.7773 18.7268 92.4927 18.925C93.0951 19.0919 93.5935 19.3326 93.9881 19.6471C94.3921 19.9642 94.7038 20.3338 94.923 20.756C95.1422 21.1781 95.2712 21.629 95.3099 22.1086C95.3513 22.5791 95.2971 23.0623 95.1472 23.558C95.1091 23.6842 95.0602 23.8123 95.0005 23.9422C94.9503 24.0748 94.8913 24.1855 94.8237 24.2742L88.8939 22.631L89.3025 21.279L94.1875 22.6327L93.1201 23.0256C93.3301 22.6344 93.4183 22.2584 93.3846 21.8974C93.3603 21.539 93.2308 21.2248 92.9962 20.9546C92.7711 20.6871 92.4561 20.4973 92.0514 20.3851C91.6655 20.2782 91.2933 20.2776 90.9349 20.3834C90.5793 20.4802 90.267 20.6867 89.998 21.0029C89.7412 21.3127 89.5553 21.7251 89.4404 22.2403C89.2666 22.6805 89.2065 23.0985 89.2603 23.4944C89.3262 23.8838 89.4906 24.2175 89.7534 24.4955C90.0257 24.776 90.3735 24.975 90.7971 25.0924C91.2207 25.2098 91.6042 25.2232 91.9477 25.1329C92.3007 25.0451 92.6055 24.8805 92.862 24.639L94.1461 25.7567C93.8893 26.0665 93.56 26.3122 93.1583 26.4939C92.7566 26.6757 92.3113 26.7818 91.8227 26.8125C91.3434 26.8457 90.8402 26.7893 90.3131 26.6432Z" fill="white"/>
<path d="M99.1853 29.8123C98.6903 29.5647 98.3034 29.2707 98.0248 28.9303C97.7462 28.5898 97.5863 28.2241 97.5453 27.8331C97.5088 27.4338 97.5972 27.0387 97.8103 26.6478C98.0144 26.2735 98.2827 25.9843 98.6152 25.78C98.9521 25.5675 99.3575 25.4526 99.8311 25.4354C100.305 25.4182 100.842 25.507 101.443 25.7018L103.96 26.4996L103.279 27.7472L101.109 27.0748C100.739 26.9636 100.43 26.9417 100.184 27.0088C99.9368 27.076 99.7477 27.2302 99.6162 27.4714C99.4892 27.7043 99.4784 27.937 99.5837 28.1696C99.7022 28.3983 99.9004 28.5821 100.178 28.721C100.534 28.8991 100.886 28.9848 101.232 28.978C101.592 28.9673 101.916 28.8699 102.204 28.6859C102.501 28.5063 102.733 28.2626 102.901 27.9548L103.853 26.2082C104.012 25.9171 104.022 25.6151 103.883 25.3022C103.758 24.9854 103.499 24.7292 103.108 24.5338C102.744 24.3513 102.366 24.2841 101.975 24.3321C101.597 24.3761 101.259 24.5194 100.961 24.762L99.9208 23.4162C100.255 23.128 100.64 22.9289 101.076 22.8187C101.525 22.7046 101.994 22.6747 102.484 22.7291C102.974 22.7835 103.458 22.9302 103.936 23.169C104.517 23.46 104.973 23.8202 105.303 24.2497C105.637 24.6708 105.826 25.1251 105.869 25.6127C105.926 26.0963 105.823 26.5793 105.56 27.0616L103.097 31.5779L101.482 30.77L102.115 29.6098L102.493 29.7673C102.152 29.9672 101.801 30.1039 101.44 30.1776C101.084 30.2429 100.716 30.2493 100.335 30.1968C99.9595 30.1359 99.5762 30.0077 99.1853 29.8123Z" fill="white"/>
<path d="M106.138 33.4252L110.925 27.2923L112.373 28.3286L111.308 29.6927L111.349 29.4055C111.856 29.0538 112.337 28.9 112.791 28.9443C113.254 28.9943 113.709 29.1793 114.156 29.4995L114.533 29.7691L113.512 31.0768L112.959 30.6808C112.52 30.3663 112.064 30.2451 111.592 30.3171C111.125 30.3817 110.71 30.647 110.347 31.1129L107.681 34.5289L106.138 33.4252Z" fill="white"/>
<path d="M113.638 39.6183C113.04 39.0369 112.66 38.3939 112.5 37.6895C112.353 36.9851 112.444 36.319 112.775 35.691L114.278 36.2093C114.101 36.6525 114.049 37.0834 114.122 37.5019C114.202 37.9271 114.4 38.2935 114.717 38.6009C114.964 38.8415 115.216 38.9793 115.472 39.0143C115.728 39.0493 115.947 38.9812 116.129 38.81C116.24 38.7046 116.3 38.5889 116.308 38.4629C116.33 38.337 116.313 38.2009 116.259 38.0545C116.219 37.9083 116.157 37.7619 116.075 37.6153L115.419 36.4761C115.084 35.8832 114.936 35.3315 114.975 34.8209C115.02 34.317 115.238 33.8806 115.629 33.5118C115.978 33.1826 116.368 32.9797 116.798 32.9031C117.242 32.8266 117.692 32.8696 118.148 33.0321C118.611 33.2013 119.045 33.483 119.451 33.8774C119.981 34.392 120.319 34.9683 120.467 35.6063C120.614 36.2443 120.54 36.8675 120.244 37.4758L118.721 36.9375C118.883 36.6002 118.927 36.2489 118.853 35.8835C118.78 35.518 118.602 35.1983 118.32 34.9243C118.093 34.7037 117.862 34.5793 117.627 34.5511C117.392 34.5229 117.19 34.5878 117.023 34.7459C116.918 34.8446 116.855 34.957 116.833 35.0829C116.811 35.2088 116.824 35.3416 116.871 35.4813C116.926 35.6276 116.997 35.784 117.086 35.9505L117.711 37.0796C118.032 37.6591 118.177 38.2009 118.146 38.7049C118.121 39.2156 117.906 39.6619 117.501 40.0439C117.159 40.3665 116.766 40.5661 116.322 40.6426C115.885 40.7125 115.435 40.6628 114.972 40.4937C114.509 40.3245 114.065 40.0327 113.638 39.6183Z" fill="white"/>
<path d="M120.821 47.4545L130.388 42.354L133.927 48.4409L132.386 49.2625L129.819 44.8479L127.366 46.1556L129.79 50.3242L128.249 51.1458L125.825 46.9771L123.334 48.3053L125.901 52.7199L124.36 53.5414L120.821 47.4545Z" fill="white"/>
<path d="M125.606 55.9737L130.292 57.3048L133.191 53.5542L133.903 55.6118L131.521 58.5757L131.203 57.6538L134.961 58.6715L135.667 60.7158L131.008 59.3758L128.072 63.1086L127.365 61.0643L129.742 58.1316L130.052 59.0268L126.317 58.0314L125.606 55.9737Z" fill="white"/>
<path d="M125.721 65.331L136.573 64.0394L136.796 65.7573L135.221 65.9448L135.593 65.7303C136.055 65.9401 136.431 66.2546 136.722 66.6737C137.024 67.0917 137.212 67.594 137.288 68.1806C137.381 68.8976 137.281 69.5667 136.986 70.188C136.691 70.8093 136.255 71.3245 135.676 71.7338C135.098 72.1524 134.421 72.408 133.643 72.5006C132.875 72.592 132.153 72.5077 131.477 72.2478C130.802 71.9878 130.242 71.5911 129.797 71.0578C129.362 70.5233 129.097 69.8883 129.002 69.1527C128.931 68.6034 128.977 68.0826 129.14 67.5904C129.314 67.1064 129.597 66.7039 129.99 66.383L130.407 66.6311L125.959 67.1606L125.721 65.331ZM130.725 68.7349C130.779 69.1539 130.93 69.5142 131.176 69.8158C131.423 70.1174 131.737 70.3352 132.12 70.4693C132.504 70.6127 132.929 70.6566 133.396 70.6011C133.863 70.5455 134.259 70.4038 134.585 70.1759C134.922 69.9562 135.171 69.6712 135.333 69.321C135.505 68.9697 135.563 68.5845 135.509 68.1655C135.457 67.7651 135.308 67.4141 135.061 67.1126C134.816 66.8203 134.497 66.603 134.103 66.4608C133.72 66.3267 133.3 66.2868 132.843 66.3412C132.376 66.3968 131.975 66.5344 131.638 66.7542C131.302 66.9832 131.053 67.2682 130.89 67.6091C130.728 67.9592 130.673 68.3345 130.725 68.7349Z" fill="white"/>
<path d="M129.318 79.9653C129.392 79.1802 129.641 78.5092 130.067 77.9522C130.493 77.3952 131.038 76.9803 131.703 76.7075C132.368 76.4347 133.086 76.3313 133.857 76.3973C134.657 76.4658 135.35 76.6899 135.934 77.0696C136.527 77.4596 136.978 77.955 137.286 78.556C137.593 79.1663 137.713 79.8266 137.647 80.5369C137.591 81.135 137.439 81.6496 137.193 82.0806C136.945 82.521 136.626 82.8846 136.235 83.1715C135.844 83.4583 135.407 83.6658 134.923 83.7939C134.448 83.9229 133.943 83.9644 133.406 83.9184C133.269 83.9067 133.128 83.8852 132.984 83.854C132.838 83.8321 132.714 83.7979 132.61 83.7513L133.159 77.8636L134.623 77.989L134.171 82.8393L133.564 81.9113C134.005 82.0338 134.407 82.0447 134.771 81.9439C135.133 81.8525 135.431 81.6707 135.663 81.3986C135.894 81.1358 136.028 80.8034 136.066 80.4016C136.101 80.0184 136.031 79.6685 135.854 79.3519C135.686 79.0361 135.415 78.7821 135.039 78.5898C134.673 78.4077 134.214 78.3119 133.664 78.3025C133.18 78.2234 132.74 78.2469 132.344 78.3732C131.958 78.5097 131.647 78.728 131.413 79.0282C131.177 79.3378 131.04 79.7028 131.001 80.1234C130.961 80.5439 131.021 80.907 131.179 81.2126C131.337 81.5275 131.564 81.7825 131.86 81.9774L130.96 83.3982C130.594 83.2161 130.279 82.9536 130.016 82.6108C129.753 82.268 129.559 81.8699 129.434 81.4164C129.308 80.9723 129.269 80.4886 129.318 79.9653Z" fill="white"/>
<path d="M128.52 86.7854L136.255 88.7242L135.797 90.3989L134.076 89.9677L134.369 89.8957C134.9 90.2131 135.23 90.5818 135.358 91.0019C135.484 91.4311 135.476 91.9044 135.335 92.4218L135.216 92.8575L133.566 92.444L133.741 91.8041C133.88 91.2958 133.826 90.8458 133.579 90.454C133.341 90.0646 132.928 89.7962 132.34 89.6489L128.032 88.569L128.52 86.7854Z" fill="white"/>
<path d="M126.641 93.0664L134.098 95.8289L133.404 97.5485L125.947 94.786L126.641 93.0664ZM134.934 96.1387L136.854 96.8496L136.159 98.5691L134.24 97.8582L134.934 96.1387Z" fill="white"/>
<path d="M122.739 100.894C123.149 100.211 123.669 99.7015 124.3 99.3665C124.93 99.0314 125.607 98.8734 126.33 98.8923C127.053 98.9113 127.75 99.1053 128.421 99.4745C129.118 99.8576 129.649 100.339 130.013 100.918C130.381 101.51 130.574 102.14 130.591 102.81C130.602 103.487 130.423 104.135 130.052 104.753C129.74 105.274 129.377 105.681 128.965 105.973C128.547 106.274 128.098 106.476 127.618 106.58C127.138 106.683 126.65 106.696 126.154 106.618C125.667 106.545 125.189 106.38 124.722 106.123C124.603 106.058 124.485 105.982 124.367 105.896C124.244 105.817 124.146 105.736 124.072 105.652L127.146 100.526L128.421 101.227L125.888 105.45L125.743 104.364C126.09 104.652 126.451 104.823 126.825 104.878C127.194 104.94 127.544 104.894 127.874 104.74C128.198 104.594 128.466 104.346 128.676 103.996C128.876 103.663 128.964 103.317 128.942 102.958C128.928 102.604 128.793 102.265 128.536 101.94C128.283 101.627 127.908 101.356 127.413 101.127C127.008 100.861 126.598 100.706 126.184 100.662C125.773 100.631 125.395 100.705 125.051 100.883C124.702 101.07 124.417 101.346 124.198 101.712C123.978 102.079 123.873 102.432 123.884 102.773C123.889 103.122 123.984 103.445 124.168 103.741L122.729 104.67C122.476 104.358 122.305 103.993 122.216 103.576C122.127 103.159 122.125 102.72 122.209 102.258C122.289 101.805 122.466 101.35 122.739 100.894Z" fill="white"/>
<path d="M119.072 106.883L125.08 111.934L123.888 113.235L122.706 112.242L123.013 112.312C123.251 112.75 123.323 113.197 123.229 113.655C123.136 114.126 122.902 114.566 122.527 114.975C122.139 115.398 121.7 115.692 121.211 115.855C120.716 116.025 120.211 116.057 119.697 115.949C119.19 115.848 118.712 115.608 118.263 115.23L114.398 111.98L115.668 110.595L119.191 113.557C119.456 113.78 119.73 113.923 120.012 113.985C120.294 114.047 120.567 114.033 120.832 113.944C121.098 113.867 121.337 113.713 121.55 113.48C121.757 113.255 121.886 113.007 121.937 112.738C121.996 112.475 121.975 112.214 121.874 111.954C121.773 111.695 121.59 111.453 121.325 111.23L117.802 108.268L119.072 106.883Z" fill="white"/>
<path d="M108.889 116.372C109.519 115.91 110.197 115.632 110.923 115.536C111.647 115.454 112.344 115.546 113.013 115.812C113.688 116.085 114.267 116.523 114.749 117.127C115.232 117.73 115.52 118.376 115.613 119.064C115.707 119.751 115.615 120.416 115.337 121.056C115.052 121.703 114.594 122.257 113.964 122.719C113.513 123.05 113.03 123.28 112.516 123.409C112.008 123.545 111.507 123.582 111.012 123.519C110.516 123.469 110.06 123.308 109.643 123.034L110.538 121.491C110.899 121.711 111.294 121.811 111.723 121.792C112.145 121.779 112.534 121.641 112.892 121.378C113.226 121.133 113.463 120.835 113.603 120.485C113.734 120.14 113.764 119.776 113.691 119.392C113.619 119.008 113.439 118.637 113.153 118.279C112.867 117.922 112.54 117.659 112.172 117.492C111.804 117.325 111.429 117.257 111.047 117.289C110.657 117.327 110.295 117.468 109.961 117.713C109.595 117.981 109.351 118.308 109.227 118.694C109.104 119.08 109.109 119.472 109.243 119.871L107.436 120.274C107.286 119.84 107.241 119.382 107.301 118.901C107.367 118.428 107.531 117.97 107.795 117.529C108.065 117.094 108.43 116.709 108.889 116.372Z" fill="white"/>
<path d="M99.8294 121.848C100.571 121.505 101.3 121.366 102.018 121.43C102.736 121.494 103.387 121.729 103.973 122.136C104.559 122.542 105.02 123.079 105.357 123.747C105.706 124.439 105.86 125.123 105.82 125.799C105.775 126.486 105.562 127.111 105.181 127.672C104.792 128.238 104.262 128.676 103.591 128.986C103.027 129.247 102.488 129.386 101.975 129.405C101.453 129.427 100.963 129.351 100.505 129.178C100.048 129.004 99.6373 128.751 99.274 128.418C98.915 128.095 98.6183 127.7 98.384 127.236C98.3244 127.117 98.2714 126.991 98.2252 126.856C98.1701 126.725 98.1368 126.605 98.1252 126.496L103.684 123.926L104.323 125.193L99.7437 127.31L100.264 126.335C100.381 126.761 100.577 127.097 100.854 127.344C101.122 127.595 101.438 127.746 101.801 127.797C102.155 127.852 102.522 127.792 102.901 127.617C103.263 127.45 103.54 127.212 103.733 126.904C103.93 126.604 104.019 126.251 103.998 125.844C103.973 125.449 103.824 125.023 103.55 124.566C103.372 124.127 103.126 123.778 102.809 123.518C102.489 123.27 102.134 123.127 101.744 123.088C101.346 123.053 100.948 123.128 100.551 123.311C100.154 123.495 99.8591 123.73 99.6665 124.017C99.4651 124.308 99.3531 124.626 99.3306 124.97L97.5953 124.959C97.5703 124.564 97.6439 124.171 97.8162 123.779C97.9884 123.386 98.2456 123.023 98.5879 122.687C98.9214 122.356 99.3352 122.076 99.8294 121.848Z" fill="white"/>
<path d="M88.1298 131.31L89.4423 131.925L88.6485 133.48L90.4142 133.729L90.2144 135.109L88.4513 134.874L88.7895 136.646L87.3436 136.899L87.0054 135.127L85.4431 135.944L84.7465 134.721L86.3062 133.89L84.9891 132.704L86.0044 131.682L87.3214 132.868L88.1298 131.31Z" fill="white"/>
<path d="M72.8881 127.286L72.5359 131.918L75.7725 138L73.5003 137.842L71.0315 133.097L71.8378 133.154L68.6921 137.506L66.42 137.348L70.5266 131.792L70.8798 127.146L72.8881 127.286Z" fill="white"/>
<path d="M62.5833 125.573C63.3778 125.779 64.0244 126.131 64.523 126.63C65.0216 127.129 65.3532 127.715 65.5179 128.39C65.6826 129.064 65.6638 129.759 65.4616 130.475C65.2517 131.217 64.9006 131.831 64.4083 132.316C63.904 132.807 63.316 133.146 62.6443 133.331C61.9632 133.515 61.2632 133.513 60.5444 133.327C59.939 133.17 59.4363 132.937 59.036 132.63C58.6263 132.319 58.308 131.955 58.0811 131.536C57.8543 131.118 57.7171 130.669 57.6698 130.191C57.6198 129.721 57.6652 129.237 57.806 128.739C57.8418 128.612 57.8884 128.483 57.9457 128.352C57.9936 128.219 58.0505 128.107 58.1165 128.017L64.0752 129.561L63.6913 130.92L58.7824 129.648L59.8425 129.237C59.6396 129.632 59.5583 130.009 59.5986 130.37C59.6294 130.728 59.7645 131.04 60.004 131.306C60.234 131.569 60.5523 131.754 60.959 131.859C61.3468 131.96 61.7189 131.954 62.0754 131.843C62.4292 131.74 62.7377 131.528 63.0009 131.208C63.2521 130.894 63.4304 130.478 63.5359 129.961C63.7017 129.518 63.7542 129.099 63.6932 128.704C63.6202 128.316 63.4498 127.985 63.182 127.711C62.9047 127.435 62.5532 127.242 62.1276 127.132C61.702 127.022 61.3183 127.015 60.9764 127.111C60.6251 127.204 60.3234 127.374 60.0712 127.62L58.767 126.524C59.0182 126.21 59.3429 125.958 59.7413 125.77C60.1397 125.582 60.5829 125.468 61.0709 125.429C61.5495 125.388 62.0537 125.436 62.5833 125.573Z" fill="white"/>
<path d="M53.6527 122.552C54.1522 122.791 54.5443 123.079 54.8291 123.415C55.1138 123.75 55.2802 124.113 55.3283 124.504C55.372 124.902 55.2908 125.299 55.0847 125.693C54.8874 126.071 54.6244 126.365 54.2957 126.574C53.9626 126.792 53.5594 126.914 53.0861 126.939C52.6128 126.964 52.0739 126.884 51.4692 126.699L48.9388 125.943L49.5965 124.685L51.7786 125.321C52.151 125.426 52.4599 125.443 52.7054 125.372C52.9508 125.3 53.1371 125.143 53.2642 124.9C53.387 124.665 53.3936 124.432 53.2841 124.201C53.1615 123.974 52.96 123.794 52.6796 123.66C52.3203 123.487 51.9676 123.408 51.6214 123.42C51.2621 123.437 50.94 123.539 50.6551 123.728C50.3614 123.913 50.1335 124.16 49.9712 124.471L49.0505 126.233C48.897 126.527 48.8925 126.829 49.037 127.139C49.1684 127.454 49.4312 127.706 49.8256 127.895C50.1936 128.071 50.5726 128.132 50.9627 128.078C51.3395 128.027 51.6748 127.878 51.9685 127.631L53.0329 128.959C52.7042 129.253 52.3229 129.459 51.889 129.576C51.442 129.697 50.9731 129.735 50.4823 129.689C49.9915 129.642 49.5052 129.504 49.0232 129.273C48.4361 128.992 47.9739 128.639 47.6366 128.215C47.295 127.8 47.0979 127.348 47.0455 126.862C46.9799 126.379 47.0743 125.895 47.3286 125.408L49.7094 120.852L51.3393 121.632L50.7276 122.803L50.3465 122.652C50.6839 122.446 51.0324 122.304 51.3917 122.224C51.7467 122.153 52.1148 122.14 52.496 122.187C52.8728 122.241 53.2584 122.363 53.6527 122.552Z" fill="white"/>
<path d="M46.6356 119.054L41.9598 125.265L40.4933 124.253L41.5333 122.871L41.4978 123.159C40.9973 123.519 40.5193 123.681 40.0638 123.644C39.6004 123.602 39.1422 123.424 38.6891 123.111L38.3076 122.848L39.3046 121.524L39.865 121.91C40.3101 122.218 40.7681 122.331 41.2389 122.252C41.7039 122.179 42.1141 121.907 42.4694 121.435L45.0737 117.976L46.6356 119.054Z" fill="white"/>
<path d="M39.0238 112.984C39.6324 113.555 40.0234 114.192 40.1967 114.894C40.3563 115.596 40.2764 116.263 39.9571 116.896L38.4451 116.403C38.6138 115.957 38.658 115.525 38.5775 115.108C38.4901 114.684 38.2855 114.321 37.9637 114.019C37.7119 113.782 37.4576 113.648 37.2009 113.618C36.9443 113.587 36.7267 113.659 36.5483 113.833C36.4385 113.94 36.3808 114.057 36.3752 114.183C36.3557 114.309 36.3744 114.445 36.4313 114.59C36.4743 114.736 36.5381 114.881 36.6227 115.026L37.2993 116.155C37.6448 116.742 37.8028 117.291 37.7733 117.802C37.7368 118.307 37.5265 118.747 37.1422 119.122C36.7992 119.457 36.4132 119.666 35.9845 119.75C35.5419 119.833 35.0912 119.798 34.6323 119.643C34.1664 119.481 33.7271 119.207 33.3144 118.819C32.7757 118.313 32.427 117.742 32.2681 117.107C32.1093 116.471 32.1723 115.847 32.4571 115.234L33.9901 115.747C33.8342 116.087 33.7962 116.439 33.876 116.803C33.9559 117.168 34.1393 117.484 34.4261 117.754C34.657 117.971 34.8903 118.091 35.1261 118.116C35.362 118.14 35.5622 118.072 35.7269 117.911C35.8298 117.81 35.891 117.697 35.9105 117.571C35.93 117.445 35.9148 117.312 35.8649 117.173C35.808 117.028 35.7337 116.872 35.642 116.707L34.9967 115.589C34.6652 115.015 34.5108 114.475 34.5334 113.971C34.549 113.46 34.7558 113.01 35.1538 112.621C35.49 112.293 35.8794 112.087 36.322 112.004C36.7577 111.927 37.2085 111.969 37.6744 112.13C38.1403 112.292 38.5901 112.576 39.0238 112.984Z" fill="white"/>
<path d="M31.7024 105.266L22.2285 110.523L18.5805 104.496L20.1065 103.649L22.7522 108.021L25.1811 106.673L22.6828 102.545L24.2088 101.698L26.7071 105.826L29.1742 104.457L26.5285 100.085L28.0545 99.2383L31.7024 105.266Z" fill="white"/>
<path d="M26.7637 96.8258L22.0535 95.5725L19.2227 99.3706L18.4743 97.3251L20.8018 94.3222L21.1371 95.2387L17.3614 94.2834L16.6178 92.2511L21.3003 93.5137L24.1686 89.7329L24.9121 91.7651L22.5887 94.7368L22.2631 93.8468L26.0153 94.7803L26.7637 96.8258Z" fill="white"/>
<path d="M26.4792 87.47L15.6522 88.9392L15.3985 87.2252L16.9702 87.0119L16.602 87.2325C16.1366 87.0303 15.7545 86.722 15.4557 86.3077C15.1472 85.8947 14.9496 85.3955 14.863 84.8103C14.7571 84.0949 14.8459 83.4243 15.1293 82.7982C15.4128 82.1722 15.8402 81.6499 16.4116 81.2312C16.9816 80.8032 17.6547 80.5366 18.4308 80.4312C19.1973 80.3272 19.9205 80.3997 20.6006 80.6485C21.2807 80.8974 21.8477 81.2848 22.3016 81.8108C22.7458 82.338 23.0222 82.9686 23.1308 83.7025C23.212 84.2507 23.1753 84.7721 23.0209 85.2669C22.8554 85.7537 22.5792 86.1608 22.1922 86.4881L21.7705 86.2468L26.209 85.6445L26.4792 87.47ZM21.4155 84.1485C21.3536 83.7305 21.1968 83.3727 20.9449 83.0752C20.6931 82.7777 20.3746 82.5651 19.9895 82.4373C19.603 82.3002 19.177 82.2632 18.7113 82.3264C18.2456 82.3896 17.8519 82.5378 17.5301 82.771C17.1973 82.9962 16.9531 83.2852 16.7975 83.638C16.6321 83.9921 16.5804 84.3782 16.6423 84.7962C16.7014 85.1957 16.8569 85.5442 17.1087 85.8417C17.3592 86.1299 17.6825 86.3419 18.0787 86.4777C18.4638 86.6055 18.8843 86.6385 19.3403 86.5766C19.806 86.5134 20.2052 86.3692 20.5381 86.144C20.8695 85.9095 21.1137 85.6204 21.2707 85.2769C21.4264 84.9241 21.4746 84.548 21.4155 84.1485Z" fill="white"/>
<path d="M22.6228 72.9052C22.5636 73.6914 22.3261 74.3664 21.9103 74.9303C21.4945 75.4943 20.9566 75.9181 20.2967 76.2017C19.6368 76.4854 18.9208 76.6006 18.1487 76.5473C17.3473 76.4919 16.6511 76.2792 16.0601 75.9091C15.4599 75.529 15.0006 75.0411 14.682 74.4452C14.3641 73.84 14.2319 73.1818 14.2855 72.4705C14.3306 71.8716 14.4727 71.3546 14.7117 70.9196C14.9515 70.4752 15.2642 70.1064 15.6498 69.8132C16.0353 69.5199 16.469 69.3053 16.9508 69.1693C17.4229 69.0325 17.9276 68.9827 18.4652 69.0198C18.602 69.0293 18.743 69.0484 18.8882 69.0773C19.0341 69.0968 19.1594 69.1289 19.264 69.1738L18.82 75.0697L17.354 74.9684L17.7198 70.1113L18.3433 71.0293C17.9001 70.914 17.4976 70.9097 17.1359 71.0164C16.7749 71.1138 16.4809 71.3005 16.2538 71.5764C16.0274 71.843 15.899 72.1775 15.8687 72.5799C15.8398 72.9636 15.9167 73.3123 16.0994 73.6259C16.2723 73.9389 16.5482 74.1884 16.9272 74.3745C17.2971 74.5506 17.757 74.6388 18.3072 74.6391C18.793 74.7103 19.2325 74.6795 19.6256 74.5468C20.0097 74.404 20.3163 74.1805 20.5455 73.8765C20.7754 73.5632 20.9063 73.1959 20.938 72.7748C20.9697 72.3536 20.9036 71.9916 20.7398 71.6887C20.5767 71.3764 20.3451 71.1252 20.045 70.9351L20.9194 69.4998C21.2893 69.6758 21.6088 69.9331 21.878 70.2715C22.1473 70.61 22.3484 71.0049 22.4814 71.4562C22.6151 71.8981 22.6623 72.3812 22.6228 72.9052Z" fill="white"/>
<path d="M23.2982 66.0754L15.529 64.266L15.9563 62.5839L17.6843 62.9864L17.3925 63.0633C16.8557 62.7548 16.5194 62.3916 16.3835 61.9737C16.25 61.5467 16.2492 61.0734 16.3812 60.5537L16.4923 60.1161L18.149 60.5019L17.9857 61.1446C17.856 61.6552 17.9185 62.1043 18.173 62.4918C18.418 62.8772 18.8356 63.1386 19.4259 63.2761L23.7532 64.2839L23.2982 66.0754Z" fill="white"/>
<path d="M25.065 59.7533L17.5594 57.1142L18.223 55.3835L25.7287 58.0226L25.065 59.7533ZM16.7177 56.8183L14.7861 56.1392L15.4498 54.4084L17.3814 55.0876L16.7177 56.8183Z" fill="white"/>
<path d="M28.8231 51.866C28.4256 52.5562 27.9147 53.0739 27.2905 53.4193C26.6663 53.7647 25.9926 53.9339 25.2693 53.9269C24.5459 53.9199 23.8453 53.7373 23.1675 53.3793C22.464 53.0077 21.9248 52.5354 21.5499 51.9623C21.1711 51.3765 20.9674 50.7492 20.9386 50.0803C20.9146 49.4033 21.0824 48.7526 21.4421 48.1282C21.745 47.6023 22.1001 47.1898 22.5074 46.8906C22.9195 46.5832 23.3647 46.3737 23.8431 46.262C24.3215 46.1504 24.8092 46.1294 25.3062 46.199C25.7946 46.2641 26.2748 46.4213 26.7467 46.6706C26.8668 46.734 26.9865 46.8079 27.1057 46.8923C27.2297 46.9685 27.3294 47.048 27.4048 47.1307L24.4233 52.3067L23.1363 51.6269L25.5925 47.3629L25.7573 48.4464C25.4052 48.164 25.0416 47.9988 24.6665 47.9507C24.2961 47.8943 23.9474 47.9459 23.6205 48.1054C23.2984 48.2567 23.0355 48.509 22.832 48.8623C22.638 49.1992 22.5553 49.5466 22.5841 49.9047C22.6042 50.2582 22.7457 50.5955 23.0084 50.9164C23.2673 51.2246 23.6465 51.4892 24.1459 51.7101C24.5559 51.9695 24.9685 52.1178 25.3836 52.1549C25.7948 52.1792 26.1709 52.0993 26.512 51.9151C26.8578 51.7227 27.1372 51.4417 27.3502 51.072C27.5632 50.7023 27.6615 50.347 27.6452 50.0062C27.6336 49.6572 27.5332 49.3362 27.3438 49.0433L28.7655 48.0905C29.0244 48.3987 29.2021 48.7604 29.2986 49.1757C29.3951 49.591 29.405 50.0303 29.3284 50.4934C29.2566 50.9484 29.0882 51.4059 28.8231 51.866Z" fill="white"/>
<path d="M32.3824 45.8188L26.2849 40.8661L27.4543 39.5459L28.6536 40.5201L28.3456 40.4544C28.0999 40.0211 28.0199 39.5747 28.1056 39.1153C28.1902 38.6426 28.4164 38.1988 28.784 37.7838C29.1643 37.3545 29.5974 37.0541 30.0832 36.8828C30.5754 36.7043 31.0795 36.6647 31.5955 36.7639C32.104 36.857 32.5862 37.0887 33.042 37.459L36.965 40.6454L35.7195 42.0515L32.144 39.1472C31.875 38.9287 31.599 38.7907 31.3159 38.733C31.0329 38.6754 30.7599 38.6935 30.4968 38.7875C30.2326 38.8681 29.9959 39.0266 29.7867 39.2627C29.5839 39.4916 29.4593 39.7411 29.4129 40.011C29.3591 40.2749 29.3849 40.5358 29.4905 40.7938C29.596 41.0518 29.7833 41.29 30.0523 41.5085L33.6279 44.4127L32.3824 45.8188Z" fill="white"/>
<path d="M42.3943 36.1641C41.7725 36.6365 41.0995 36.9262 40.3752 37.0333C39.6525 37.1272 38.9542 37.0468 38.2805 36.7921C37.6006 36.5301 37.014 36.1014 36.5207 35.506C36.0274 34.9106 35.7279 34.2698 35.6222 33.5836C35.5165 32.8974 35.5966 32.2318 35.8625 31.5866C36.1361 30.9355 36.5838 30.3738 37.2056 29.9015C37.6508 29.5633 38.1293 29.3255 38.641 29.1883C39.1466 29.0437 39.6472 28.9988 40.1428 29.0535C40.6399 29.095 41.0991 29.2492 41.5204 29.516L40.653 31.0733C40.2881 30.8594 39.8914 30.7655 39.4628 30.7917C39.0419 30.812 38.6549 30.9563 38.3018 31.2246C37.9717 31.4753 37.7401 31.777 37.607 32.1297C37.4816 32.4765 37.4586 32.8413 37.5381 33.224C37.6176 33.6068 37.8035 33.9746 38.0958 34.3274C38.3881 34.6802 38.7199 34.9372 39.0911 35.0984C39.4622 35.2596 39.8384 35.3211 40.2196 35.283C40.6085 35.2391 40.968 35.0918 41.2981 34.841C41.6588 34.567 41.8974 34.236 42.0139 33.8481C42.1303 33.4602 42.1182 33.0682 41.9775 32.672L43.7767 32.2394C43.934 32.6708 43.9872 33.1275 43.9361 33.6094C43.879 34.084 43.7225 34.5442 43.4666 34.9902C43.2046 35.4287 42.8471 35.8201 42.3943 36.1641Z" fill="white"/>
<path d="M51.3518 30.541C50.6168 30.8959 49.89 31.0473 49.1711 30.9951C48.4523 30.943 47.7963 30.7185 47.2033 30.3219C46.6103 29.9252 46.1395 29.3959 45.791 28.7341C45.4292 28.0471 45.2624 27.3658 45.2906 26.6901C45.3232 26.0018 45.5247 25.3738 45.8951 24.8061C46.2743 24.2342 46.7964 23.7877 47.4613 23.4666C48.0212 23.1962 48.5575 23.0476 49.0701 23.0207C49.5914 22.9896 50.0825 23.0572 50.5432 23.2235C51.0039 23.3899 51.4189 23.6361 51.7882 23.9621C52.153 24.2798 52.4568 24.6691 52.6995 25.1299C52.7612 25.2471 52.8165 25.3728 52.8652 25.507C52.9226 25.6368 52.9581 25.7563 52.9716 25.8654L47.4598 28.5272L46.798 27.2705L51.3386 25.0777L50.8361 26.0613C50.7118 25.6379 50.5091 25.3049 50.2277 25.0625C49.9552 24.8158 49.6369 24.67 49.2731 24.625C48.9179 24.5759 48.5523 24.6421 48.1761 24.8238C47.8174 24.997 47.5444 25.2392 47.357 25.5503C47.1653 25.8531 47.0833 26.2079 47.1111 26.6149C47.1432 27.0092 47.3003 27.4325 47.5824 27.8847C47.768 28.3205 48.0212 28.6659 48.342 28.9208C48.6672 29.1631 49.0248 29.3004 49.4149 29.3327C49.8138 29.3607 50.2101 29.2797 50.6038 29.0895C50.9975 28.8994 51.288 28.6593 51.4754 28.3691C51.6715 28.0747 51.7777 27.7555 51.794 27.4114L53.5293 27.393C53.5614 27.7874 53.4949 28.182 53.3298 28.577C53.1647 28.972 52.914 29.34 52.5778 29.681C52.2504 30.0178 51.8417 30.3044 51.3518 30.541Z" fill="white"/>
<path d="M62.8956 20.8818L61.5723 20.2888L62.3385 18.7208L60.5685 18.5006L60.7438 17.1177L62.5108 17.324L62.1412 15.5577L63.5823 15.2811L63.952 17.0475L65.4995 16.205L66.2177 17.4165L64.6731 18.2727L66.011 19.437L65.0141 20.4752L63.6762 19.3109L62.8956 20.8818Z" fill="white"/>
</svg>
